<svg viewBox="0 0 1500 1200" xmlns="http://www.w3.org/2000/svg" font-family="'Inter','DejaVu Sans',system-ui,sans-serif">
  <defs>
    <pattern id="grid" width="40" height="40" patternUnits="userSpaceOnUse">
      <path d="M40 0 H0 V40" fill="none" stroke="#16202A" stroke-width="1"/>
    </pattern>
    <style>
      .mono { font-family:'JetBrains Mono','DejaVu Sans Mono',ui-monospace,Consolas,monospace; }
      .disp { font-family:'Inter','DejaVu Sans',system-ui,sans-serif; }
    </style>
  </defs>

  <!-- ===== GROUND ===== -->
  <rect x="0" y="0" width="1500" height="1200" fill="#0B0F14"/>
  <rect x="0" y="0" width="1500" height="1200" fill="url(#grid)" opacity="0.5"/>

  <!-- frame + corner ticks -->
  <rect x="40" y="40" width="1420" height="1120" fill="none" stroke="#2A3540" stroke-width="1.2"/>
  <g stroke="#3C8C84" stroke-width="2">
    <path d="M40 70 V40 H70"/><path d="M1460 70 V40 H1430"/>
    <path d="M40 1130 V1160 H70"/><path d="M1460 1130 V1160 H1430"/>
  </g>

  <!-- ===== HEADER ===== -->
  <g>
    <text x="70" y="92" class="mono" font-size="14" letter-spacing="2.5" fill="#2DD4BF">PRODUCTIVE · PRODUCTIVITY ENHANCEMENT — PART 5.0</text>
    <text x="70" y="113" class="mono" font-size="12.5" letter-spacing="1.5" fill="#7C8893">( THE TACTICAL TOOLKIT · the literacy layer, supercharged )</text>
    <text x="70" y="170" class="disp" font-size="55" font-weight="700" fill="#EEF3F7">NAME IT. DON'T NAVIGATE TO IT.</text>
    <text x="71" y="201" class="mono" font-size="15.5" letter-spacing="0.6" fill="#E8A23D">HIGHEST RETURN, LOWEST STATUS — SO MOST PEOPLE SKIP IT.</text>
  </g>

  <!-- top-right meta + colour legend -->
  <g text-anchor="end">
    <text x="1438" y="86" class="mono" font-size="13" letter-spacing="1.5" fill="#C9D2D9">INSTRUMENT — THE COMMAND BENCH</text>
    <text x="1438" y="104" class="mono" font-size="11" fill="#7C8893">Neural Signal Schematic · six-module rack · one bus</text>
  </g>
  <g class="mono" font-size="10.5" text-anchor="start">
    <circle cx="1086" cy="128" r="4.5" fill="#2DD4BF"/><text x="1097" y="132" fill="#9AA6B0">live / load-bearing</text>
    <circle cx="1228" cy="128" r="4.5" fill="#E8A23D"/><text x="1239" y="132" fill="#9AA6B0">mind this</text>
    <circle cx="1330" cy="128" r="4.5" fill="#FF5C5C"/><text x="1341" y="132" fill="#9AA6B0">the one fault</text>
    <circle cx="1086" cy="146" r="4.5" fill="#46525D"/><text x="1097" y="150" fill="#9AA6B0">old / idle / low — not an alarm</text>
  </g>

  <!-- ===== INTERFACE SWAP BAND ===== -->
  <!-- OLD DEFAULT: ghosted menu maze (left) -->
  <g opacity="0.62">
    <text x="70" y="246" class="mono" font-size="12" letter-spacing="1.5" fill="#5A6671">OLD DEFAULT</text>
    <!-- nested grey menus -->
    <g fill="none" stroke="#3E4954" stroke-width="1.4">
      <rect x="74" y="256" width="150" height="104" rx="3"/>
      <rect x="92" y="272" width="150" height="104" rx="3"/>
      <rect x="110" y="288" width="150" height="104" rx="3"/>
    </g>
    <g stroke="#3E4954" stroke-width="1.1">
      <line x1="120" y1="306" x2="252" y2="306"/><line x1="120" y1="322" x2="252" y2="322"/>
      <line x1="120" y1="338" x2="252" y2="338"/><line x1="120" y1="354" x2="252" y2="354"/>
    </g>
    <!-- little app icons -->
    <g fill="#2C3640" stroke="#3E4954" stroke-width="1">
      <rect x="78" y="262" width="12" height="12" rx="2"/><rect x="96" y="278" width="12" height="12" rx="2"/>
    </g>
    <!-- a clicking cursor descending through layers -->
    <path d="M196 330 l0 26 l7 -7 l5 12 l5 -2 l-5 -12 l9 0 z" fill="#566069"/>
    <line x1="232" y1="298" x2="246" y2="312" stroke="#5A6671" stroke-width="1.2"/>
    <line x1="246" y1="312" x2="232" y2="326" stroke="#5A6671" stroke-width="1.2"/>
    <text x="74" y="388" class="mono" font-size="11" fill="#6C7782">OPEN APP → NAVIGATE MENUS → DO BY HAND</text>
  </g>
  <!-- supplanted-by arrow -->
  <g>
    <line x1="300" y1="316" x2="372" y2="316" stroke="#46525D" stroke-width="2" stroke-dasharray="6 5"/>
    <path d="M372 316 l-12 -6 l0 12 z" fill="#46525D"/>
    <text x="304" y="306" class="mono" font-size="10.5" fill="#6C7782">replaced by</text>
  </g>

  <!-- supply feeds plugging in from above -->
  <g>
    <rect x="486" y="246" width="250" height="40" rx="6" fill="#0C1A1B" stroke="#2DD4BF" stroke-width="1.2" opacity="0.95"/>
    <text x="611" y="263" text-anchor="middle" class="mono" font-size="11.5" fill="#2DD4BF">FEED A · CONTEXT / INSTRUCTIONS</text>
    <text x="611" y="278" text-anchor="middle" class="mono" font-size="10.5" fill="#7C8893">→ Part 3.1 The Self-Improving Workflow</text>
    <line x1="611" y1="286" x2="611" y2="416" stroke="#2DD4BF" stroke-width="2"/>

    <rect x="864" y="246" width="250" height="40" rx="6" fill="#0C1A1B" stroke="#2DD4BF" stroke-width="1.2" opacity="0.95"/>
    <text x="989" y="263" text-anchor="middle" class="mono" font-size="11.5" fill="#2DD4BF">FEED B · KNOWLEDGE / PARA</text>
    <text x="989" y="278" text-anchor="middle" class="mono" font-size="10.5" fill="#7C8893">→ Part 4.0 PARA · Part 4.2 OS</text>
    <line x1="989" y1="286" x2="989" y2="416" stroke="#2DD4BF" stroke-width="2"/>
    <text x="1132" y="270" class="mono" font-size="10.5" fill="#7C8893">if these run thin,</text>
    <text x="1132" y="284" class="mono" font-size="10.5" fill="#7C8893">the bus dims.</text>
  </g>

  <!-- THE COMMAND BUS -->
  <g>
    <rect x="196" y="406" width="1249" height="62" rx="9" fill="#2DD4BF" opacity="0.16"/>
    <rect x="200" y="410" width="1245" height="54" rx="7" fill="#2DD4BF"/>
    <text x="232" y="436" class="disp" font-size="13" font-weight="700" letter-spacing="2" fill="#06302C">NEW DEFAULT</text>
    <!-- name-it glyph #1 -->
    <g transform="translate(360,422)">
      <rect x="0" y="0" width="34" height="22" rx="4" fill="none" stroke="#06302C" stroke-width="1.6"/>
      <path d="M11 5 l8 6 l-8 6" fill="none" stroke="#06302C" stroke-width="1.8"/>
    </g>
    <text x="822" y="437" text-anchor="middle" class="disp" font-size="25" font-weight="700" letter-spacing="0.5" fill="#06302C">DESCRIBE THE OUTCOME</text>
    <text x="822" y="456" text-anchor="middle" class="mono" font-size="11.5" fill="#0A4A43">name the thing — don't navigate to it</text>
    <text x="822" y="486" text-anchor="middle" class="mono" font-size="11" fill="#8794A0">the assistant is only as good as the instructions &amp; knowledge behind it</text>
  </g>

  <!-- fan-down connectors into the six bays (lit cyan / idle grey) -->
  <g fill="none" stroke-width="2">
    <line x1="307" y1="486" x2="307" y2="500" stroke="#2DD4BF"/>
    <line x1="525" y1="486" x2="525" y2="525" stroke="#46525D"/>
    <line x1="728" y1="486" x2="728" y2="525" stroke="#46525D"/>
    <line x1="941" y1="486" x2="941" y2="500" stroke="#2DD4BF"/>
    <line x1="1174" y1="486" x2="1174" y2="500" stroke="#2DD4BF"/>
    <line x1="1375" y1="486" x2="1375" y2="575" stroke="#46525D"/>
  </g>

  <!-- ===== LEFT TWIN METER : RETURN vs STATUS ===== -->
  <g>
    <text x="62" y="700" transform="rotate(-90 62 700)" text-anchor="middle" class="mono" font-size="11.5" letter-spacing="2" fill="#7C8893">WHY IT GOES UNCLAIMED</text>
    <!-- baseline -->
    <line x1="84" y1="800" x2="170" y2="800" stroke="#2A3540" stroke-width="1.4"/>
    <!-- RETURN tall cyan -->
    <rect x="92" y="540" width="26" height="260" fill="#2DD4BF" opacity="0.9"/>
    <path d="M105 524 l9 14 l-18 0 z" fill="#2DD4BF"/>
    <text x="105" y="818" text-anchor="middle" class="mono" font-size="11" fill="#2DD4BF">RETURN</text>
    <!-- STATUS short grey -->
    <rect x="136" y="724" width="26" height="76" fill="#46525D"/>
    <path d="M149 740 l-9 -14 l18 0 z" fill="#46525D"/>
    <text x="149" y="818" text-anchor="middle" class="mono" font-size="11" fill="#7C8893">STATUS</text>
  </g>

  <!-- ===== THE SIX MODULES (rack) ===== -->

  <!-- M1 EMAIL (lit, big) -->
  <g>
    <rect x="200" y="500" width="215" height="335" rx="9" fill="#0E1A1B" stroke="#2DD4BF" stroke-width="1.5"/>
    <text x="216" y="528" class="mono" font-size="16" font-weight="700" letter-spacing="1" fill="#2DD4BF">EMAIL</text>
    <text x="216" y="546" class="mono" font-size="10.5" fill="#9AA6B0">a queue, not a tank</text>
    <!-- ghosted guilt tank -->
    <rect x="338" y="566" width="60" height="84" rx="4" fill="none" stroke="#3E4954" stroke-width="1.3"/>
    <line x1="338" y1="582" x2="398" y2="582" stroke="#3E4954" stroke-width="1"/>
    <line x1="338" y1="598" x2="398" y2="598" stroke="#3E4954" stroke-width="1"/>
    <text x="368" y="662" text-anchor="middle" class="mono" font-size="8.5" fill="#5A6671">4,000-pile</text>
    <!-- draining queue → 0 -->
    <g stroke="#2DD4BF" stroke-width="2">
      <line x1="218" y1="600" x2="300" y2="600"/>
    </g>
    <g fill="#2DD4BF">
      <rect x="222" y="592" width="6" height="16"/><rect x="234" y="592" width="6" height="16"/>
      <rect x="246" y="592" width="6" height="16"/><rect x="258" y="592" width="6" height="16"/>
    </g>
    <circle cx="312" cy="600" r="13" fill="none" stroke="#2DD4BF" stroke-width="2"/>
    <text x="312" y="605" text-anchor="middle" class="mono" font-size="13" font-weight="700" fill="#2DD4BF">0</text>
    <!-- ×AI bolt-on -->
    <rect x="216" y="632" width="183" height="42" rx="5" fill="#0A2422" stroke="#2DD4BF" stroke-width="1" opacity="0.95"/>
    <text x="224" y="650" class="mono" font-size="11" fill="#2DD4BF">×AI  TRIAGE</text>
    <text x="224" y="666" class="mono" font-size="9.5" fill="#9AA6B0">digest + drafts · batch-unsub valve</text>
    <!-- amber guard -->
    <rect x="216" y="684" width="183" height="26" rx="4" fill="#1E160A" stroke="#E8A23D" stroke-width="1.1"/>
    <text x="307" y="701" text-anchor="middle" class="mono" font-size="11" font-weight="700" fill="#E8A23D">INBOX ≠ TO-DO LIST</text>
    <!-- fundamental rail -->
    <rect x="216" y="790" width="183" height="30" rx="4" fill="#0A2422" stroke="#2DD4BF" stroke-width="1.4"/>
    <text x="224" y="803" class="mono" font-size="8.5" letter-spacing="1.5" fill="#6FBdb4">FUNDAMENTAL</text>
    <text x="224" y="815" class="mono" font-size="11" font-weight="700" fill="#2DD4BF">QUEUE → ZERO</text>
  </g>

  <!-- M2 SHORTCUTS (idle, mid) -->
  <g>
    <rect x="433" y="525" width="185" height="310" rx="9" fill="#0D1217" stroke="#46525D" stroke-width="1.4"/>
    <text x="449" y="553" class="mono" font-size="16" font-weight="700" letter-spacing="1" fill="#8A94A0">SHORTCUTS</text>
    <text x="449" y="571" class="mono" font-size="10.5" fill="#6C7782">bypass the mouse</text>
    <!-- bypass path + tax resistor -->
    <line x1="449" y1="600" x2="478" y2="600" stroke="#7C8893" stroke-width="2"/>
    <!-- mouse detour (zigzag tax) -->
    <path d="M478 600 l8 -10 l8 20 l8 -20 l8 20 l8 -10" fill="none" stroke="#E8A23D" stroke-width="1.6"/>
    <line x1="526" y1="600" x2="555" y2="600" stroke="#7C8893" stroke-width="2"/>
    <text x="500" y="628" text-anchor="middle" class="mono" font-size="8.5" fill="#E8A23D">TAX + break</text>
    <!-- direct hotkey bypass -->
    <path d="M449 645 C 490 645, 510 645, 555 645" fill="none" stroke="#8A94A0" stroke-width="2"/>
    <text x="449" y="663" class="mono" font-size="8.5" fill="#6C7782">direct hotkey bypass</text>
    <!-- name-it glyph #2 : command palette -->
    <rect x="449" y="678" width="153" height="40" rx="5" fill="#11181E" stroke="#7C8893" stroke-width="1"/>
    <g transform="translate(457,686)">
      <rect x="0" y="0" width="24" height="18" rx="3" fill="none" stroke="#8A94A0" stroke-width="1.4"/>
      <path d="M8 4 l7 5 l-7 5" fill="none" stroke="#8A94A0" stroke-width="1.5"/>
    </g>
    <text x="489" y="694" class="mono" font-size="9.5" fill="#9AA6B0">Cmd/Ctrl-K — name it</text>
    <text x="457" y="711" class="mono" font-size="9" fill="#6C7782">+ text expander</text>
    <!-- fundamental rail (idle) -->
    <rect x="449" y="790" width="153" height="30" rx="4" fill="#11181E" stroke="#7C8893" stroke-width="1.2"/>
    <text x="457" y="803" class="mono" font-size="8.5" letter-spacing="1.5" fill="#6C7782">FUNDAMENTAL</text>
    <text x="457" y="815" class="mono" font-size="11" font-weight="700" fill="#9AA6B0">HOTKEY BYPASS</text>
  </g>

  <!-- M3 CALENDAR (idle, mid) -->
  <g>
    <rect x="636" y="525" width="185" height="310" rx="9" fill="#0D1217" stroke="#46525D" stroke-width="1.4"/>
    <text x="652" y="553" class="mono" font-size="16" font-weight="700" letter-spacing="1" fill="#8A94A0">CALENDAR</text>
    <text x="652" y="571" class="mono" font-size="10.5" fill="#6C7782">time-specific only</text>
    <!-- one trusted grid with time blocks -->
    <rect x="652" y="586" width="78" height="70" rx="3" fill="none" stroke="#7C8893" stroke-width="1.3"/>
    <line x1="652" y1="604" x2="730" y2="604" stroke="#46525D" stroke-width="1"/>
    <line x1="678" y1="586" x2="678" y2="656" stroke="#46525D" stroke-width="1"/>
    <line x1="704" y1="586" x2="704" y2="656" stroke="#46525D" stroke-width="1"/>
    <rect x="655" y="608" width="20" height="14" fill="#8A94A0" opacity="0.7"/>
    <rect x="707" y="626" width="20" height="14" fill="#8A94A0" opacity="0.7"/>
    <!-- amber reject pad -->
    <rect x="742" y="592" width="64" height="34" rx="4" fill="#1E160A" stroke="#E8A23D" stroke-width="1.1"/>
    <text x="774" y="606" text-anchor="middle" class="mono" font-size="8" fill="#E8A23D">no non-time-</text>
    <text x="774" y="617" text-anchor="middle" class="mono" font-size="8" fill="#E8A23D">specific tasks</text>
    <!-- ×AI scheduler -->
    <rect x="652" y="668" width="154" height="40" rx="5" fill="#11181E" stroke="#7C8893" stroke-width="1"/>
    <text x="660" y="685" class="mono" font-size="10.5" fill="#9AA6B0">×AI  does the Tetris</text>
    <text x="660" y="700" class="mono" font-size="9" fill="#6C7782">proposes slots · protects DEEP WORK</text>
    <!-- amber veto gate -->
    <rect x="652" y="716" width="154" height="24" rx="4" fill="#1E160A" stroke="#E8A23D" stroke-width="1.1"/>
    <text x="729" y="732" text-anchor="middle" class="mono" font-size="10.5" font-weight="700" fill="#E8A23D">YOU KEEP THE VETO</text>
    <!-- fundamental rail (idle) -->
    <rect x="652" y="790" width="154" height="30" rx="4" fill="#11181E" stroke="#7C8893" stroke-width="1.2"/>
    <text x="660" y="803" class="mono" font-size="8.5" letter-spacing="1.5" fill="#6C7782">FUNDAMENTAL</text>
    <text x="660" y="815" class="mono" font-size="11" font-weight="700" fill="#9AA6B0">ONE TRUSTED CAL</text>
  </g>

  <!-- M4 READING (lit, big) -->
  <g>
    <rect x="839" y="500" width="205" height="335" rx="9" fill="#0E1A1B" stroke="#2DD4BF" stroke-width="1.5"/>
    <text x="855" y="528" class="mono" font-size="16" font-weight="700" letter-spacing="1" fill="#2DD4BF">READING</text>
    <text x="855" y="546" class="mono" font-size="10.5" fill="#9AA6B0">route highlights, or they evaporate</text>
    <!-- pipeline read → readwise → obsidian → MAP -->
    <g class="mono" font-size="9" fill="#9AA6B0">
      <rect x="855" y="562" width="50" height="26" rx="3" fill="#11181E" stroke="#7C8893" stroke-width="1"/>
      <text x="880" y="579" text-anchor="middle">read</text>
      <rect x="915" y="562" width="58" height="26" rx="3" fill="#11181E" stroke="#7C8893" stroke-width="1"/>
      <text x="944" y="579" text-anchor="middle">Readwise</text>
      <rect x="855" y="600" width="58" height="26" rx="3" fill="#11181E" stroke="#7C8893" stroke-width="1"/>
      <text x="884" y="617" text-anchor="middle">Obsidian</text>
    </g>
    <g stroke="#2DD4BF" stroke-width="1.8" fill="none">
      <line x1="905" y1="575" x2="915" y2="575"/>
      <path d="M944 588 l0 8 l-60 0 l0 4"/>
      <line x1="913" y1="613" x2="958" y2="613"/>
    </g>
    <!-- map node (4.1) -->
    <rect x="958" y="598" width="70" height="32" rx="4" fill="#0A2422" stroke="#2DD4BF" stroke-width="1.4"/>
    <text x="993" y="612" text-anchor="middle" class="mono" font-size="9.5" font-weight="700" fill="#2DD4BF">MAP NODE</text>
    <text x="993" y="624" text-anchor="middle" class="mono" font-size="8" fill="#6FBdb4">→ Part 4.1</text>
    <!-- grey leak tag -->
    <rect x="855" y="644" width="173" height="30" rx="4" fill="#141A1F" stroke="#46525D" stroke-width="1"/>
    <text x="941" y="656" text-anchor="middle" class="mono" font-size="8.5" fill="#7C8893">a highlight stuck in the reading app</text>
    <text x="941" y="668" text-anchor="middle" class="mono" font-size="8.5" fill="#7C8893">evaporates — never sharpens a map</text>
    <!-- fundamental rail -->
    <rect x="855" y="790" width="173" height="30" rx="4" fill="#0A2422" stroke="#2DD4BF" stroke-width="1.4"/>
    <text x="863" y="803" class="mono" font-size="8.5" letter-spacing="1.5" fill="#6FBdb4">FUNDAMENTAL</text>
    <text x="863" y="815" class="mono" font-size="11" font-weight="700" fill="#2DD4BF">CAPTURE → PIPELINE</text>
  </g>

  <!-- M5 ANTI-LIBRARY + RAG (lit, biggest) -->
  <g>
    <rect x="1062" y="500" width="225" height="335" rx="9" fill="#0E1A1B" stroke="#2DD4BF" stroke-width="1.5"/>
    <text x="1078" y="528" class="mono" font-size="15.5" font-weight="700" letter-spacing="0.5" fill="#2DD4BF">ANTI-LIBRARY + RAG</text>
    <text x="1078" y="546" class="mono" font-size="10.5" fill="#9AA6B0">tag the unread · ask, don't read it all</text>
    <!-- stack of tagged unread books -->
    <g>
      <rect x="1078" y="562" width="84" height="13" fill="#1B2A2A" stroke="#7C8893" stroke-width="1"/>
      <rect x="1078" y="577" width="84" height="13" fill="#1B2A2A" stroke="#7C8893" stroke-width="1"/>
      <rect x="1078" y="592" width="84" height="13" fill="#1B2A2A" stroke="#7C8893" stroke-width="1"/>
      <rect x="1078" y="607" width="84" height="13" fill="#1B2A2A" stroke="#7C8893" stroke-width="1"/>
      <rect x="1156" y="562" width="6" height="13" fill="#E8A23D"/>
      <rect x="1156" y="592" width="6" height="13" fill="#E8A23D"/>
      <text x="1120" y="635" text-anchor="middle" class="mono" font-size="8.5" fill="#7C8893">1,000+ UNREAD · tagged</text>
    </g>
    <!-- RAG probe → sourced answer -->
    <path d="M1166 591 l30 0" stroke="#2DD4BF" stroke-width="2" fill="none"/>
    <path d="M1196 591 l-10 -5 l0 10 z" fill="#2DD4BF"/>
    <rect x="1200" y="566" width="78" height="50" rx="5" fill="#0A2422" stroke="#2DD4BF" stroke-width="1.3"/>
    <text x="1239" y="584" text-anchor="middle" class="mono" font-size="10" font-weight="700" fill="#2DD4BF">×AI RAG</text>
    <text x="1239" y="598" text-anchor="middle" class="mono" font-size="8.5" fill="#9AA6B0">ask a question →</text>
    <text x="1239" y="609" text-anchor="middle" class="mono" font-size="8.5" fill="#9AA6B0">sourced answer</text>
    <!-- inner twin-meter reading vs retrieval -->
    <g>
      <rect x="1078" y="648" width="70" height="24" rx="3" fill="#141A1F" stroke="#46525D" stroke-width="1"/>
      <text x="1113" y="663" text-anchor="middle" class="mono" font-size="9" fill="#7C8893">READ ▼ slow</text>
      <rect x="1156" y="648" width="122" height="24" rx="3" fill="#0A2422" stroke="#2DD4BF" stroke-width="1"/>
      <text x="1217" y="663" text-anchor="middle" class="mono" font-size="8.5" fill="#2DD4BF">RETRIEVAL ▲ supercharged</text>
    </g>
    <!-- fusion callback -->
    <text x="1078" y="692" class="mono" font-size="8.5" fill="#6FBdb4">= 4.0 PARA + 4.2 OS cashing out:</text>
    <text x="1078" y="704" class="mono" font-size="8.5" fill="#6FBdb4">a tool that answers, not a shelf</text>
    <!-- fundamental rail -->
    <rect x="1078" y="790" width="193" height="30" rx="4" fill="#0A2422" stroke="#2DD4BF" stroke-width="1.4"/>
    <text x="1086" y="803" class="mono" font-size="8.5" letter-spacing="1.5" fill="#6FBdb4">FUNDAMENTAL</text>
    <text x="1086" y="815" class="mono" font-size="11" font-weight="700" fill="#2DD4BF">TAGGED UNREAD LIBRARY</text>
  </g>

  <!-- M6 PASSWORDS (idle, small, sealed) -->
  <g>
    <rect x="1305" y="575" width="140" height="260" rx="9" fill="#0D1217" stroke="#46525D" stroke-width="1.4"/>
    <text x="1320" y="601" class="mono" font-size="14" font-weight="700" letter-spacing="0.5" fill="#8A94A0">PASSWORDS</text>
    <text x="1320" y="618" class="mono" font-size="9.5" fill="#6C7782">native manager + 2FA</text>
    <!-- small sealed lock -->
    <g transform="translate(1356,648)">
      <rect x="0" y="14" width="44" height="34" rx="4" fill="#11181E" stroke="#7C8893" stroke-width="1.4"/>
      <path d="M9 14 v-8 a13 13 0 0 1 26 0 v8" fill="none" stroke="#7C8893" stroke-width="1.6"/>
      <circle cx="22" cy="30" r="4" fill="#8A94A0"/>
      <rect x="20" y="32" width="4" height="9" fill="#8A94A0"/>
    </g>
    <text x="1375" y="715" text-anchor="middle" class="mono" font-size="9" fill="#7C8893">SOLVED &amp;</text>
    <text x="1375" y="727" text-anchor="middle" class="mono" font-size="9" fill="#7C8893">FORGOTTEN</text>
    <text x="1375" y="745" text-anchor="middle" class="mono" font-size="8" fill="#5A6671">do not optimise</text>
    <!-- fundamental rail (idle, small) -->
    <rect x="1318" y="792" width="114" height="28" rx="4" fill="#11181E" stroke="#7C8893" stroke-width="1.2"/>
    <text x="1326" y="804" class="mono" font-size="8" letter-spacing="1.2" fill="#6C7782">FUNDAMENTAL</text>
    <text x="1326" y="815" class="mono" font-size="10" font-weight="700" fill="#9AA6B0">NATIVE MGR + 2FA</text>
  </g>

  <!-- ===== PICK 2-3 SELECTOR STRIP ===== -->
  <g>
    <line x1="200" y1="872" x2="1445" y2="872" stroke="#2A3540" stroke-width="1.4"/>
    <text x="200" y="900" class="mono" font-size="12" font-weight="700" letter-spacing="1" fill="#E8A23D">PICK YOUR 2–3 WEAKEST</text>
    <text x="1445" y="900" text-anchor="end" class="mono" font-size="12" font-weight="700" letter-spacing="1" fill="#E8A23D">— NOT ALL AT ONCE</text>
    <!-- six switch positions under module centres -->
    <g>
      <circle cx="307" cy="872" r="9" fill="#2DD4BF" stroke="#2DD4BF" stroke-width="2"/>
      <circle cx="525" cy="872" r="9" fill="#0B0F14" stroke="#46525D" stroke-width="2"/>
      <circle cx="728" cy="872" r="9" fill="#0B0F14" stroke="#46525D" stroke-width="2"/>
      <circle cx="941" cy="872" r="9" fill="#2DD4BF" stroke="#2DD4BF" stroke-width="2"/>
      <circle cx="1174" cy="872" r="9" fill="#2DD4BF" stroke="#2DD4BF" stroke-width="2"/>
      <circle cx="1375" cy="872" r="9" fill="#0B0F14" stroke="#46525D" stroke-width="2"/>
    </g>
  </g>

  <!-- ===== THE ONE FAULT — red vignette ===== -->
  <g>
    <rect x="70" y="930" width="540" height="186" rx="9" fill="#190E0E" stroke="#FF5C5C" stroke-width="1.4"/>
    <text x="86" y="956" class="mono" font-size="12" font-weight="700" letter-spacing="1" fill="#FF5C5C">THE ONE FAULT · effort mis-allocation</text>
    <!-- over-built password rig (red) -->
    <g>
      <rect x="92" y="972" width="120" height="118" rx="5" fill="#241011" stroke="#FF5C5C" stroke-width="1.2"/>
      <text x="152" y="989" text-anchor="middle" class="mono" font-size="8.5" fill="#FF8C8C">vault A/B/C/D…</text>
      <g fill="none" stroke="#FF5C5C" stroke-width="1.2">
        <rect x="104" y="996" width="96" height="14" rx="2"/>
        <rect x="104" y="1014" width="96" height="14" rx="2"/>
        <rect x="104" y="1032" width="96" height="14" rx="2"/>
        <rect x="104" y="1050" width="96" height="14" rx="2"/>
      </g>
      <!-- fussing hand/cursor -->
      <path d="M196 1058 l0 24 l7 -7 l5 11 l5 -2 l-5 -11 l9 0 z" fill="#FF5C5C"/>
      <text x="152" y="1082" text-anchor="middle" class="mono" font-size="8" fill="#FF8C8C">comparing vaults all afternoon</text>
    </g>
    <!-- arrow of mis-spent effort -->
    <path d="M222 1030 l44 0" stroke="#FF5C5C" stroke-width="1.6" stroke-dasharray="5 4" fill="none"/>
    <!-- dark email-triage bay (forgone win) -->
    <g opacity="0.85">
      <rect x="276" y="972" width="120" height="118" rx="5" fill="#11151A" stroke="#46525D" stroke-width="1.2"/>
      <text x="336" y="989" text-anchor="middle" class="mono" font-size="8.5" fill="#6C7782">EMAIL TRIAGE</text>
      <line x1="288" y1="1010" x2="384" y2="1010" stroke="#39424C" stroke-width="1"/>
      <line x1="288" y1="1028" x2="384" y2="1028" stroke="#39424C" stroke-width="1"/>
      <line x1="288" y1="1046" x2="384" y2="1046" stroke="#39424C" stroke-width="1"/>
      <text x="336" y="1075" text-anchor="middle" class="mono" font-size="8.5" fill="#5A6671">DARK · unbuilt</text>
    </g>
    <text x="416" y="1004" class="mono" font-size="11.5" font-weight="700" fill="#FF5C5C">GOLD-PLATING</text>
    <text x="416" y="1021" class="mono" font-size="11.5" font-weight="700" fill="#FF5C5C">THE 10-MINUTE JOB</text>
    <text x="416" y="1046" class="mono" font-size="11" fill="#FF8C8C">while the 10× wins</text>
    <text x="416" y="1062" class="mono" font-size="11" fill="#FF8C8C">sit dark beside it.</text>
  </g>

  <!-- ===== FORWARD POINTERS / FUSION CALLBACKS ===== -->
  <g opacity="0.92">
    <text x="660" y="956" class="mono" font-size="12" letter-spacing="1" fill="#7C8893">OFF-BOARD CONTINUITY</text>
    <line x1="660" y1="966" x2="1445" y2="966" stroke="#2A3540" stroke-width="1"/>

    <text x="660" y="996" class="mono" font-size="13" font-weight="700" fill="#2DD4BF">→ PART 6 : JUST-IN-TIME PROJECT MANAGEMENT</text>
    <text x="660" y="1013" class="mono" font-size="10.5" fill="#7C8893">the next instrument — a pull mechanism, not a parallel rack</text>

    <text x="660" y="1044" class="mono" font-size="11.5" fill="#6FBdb4">FUSION · READING → 4.1 MAP   ·   LIBRARY + RAG → 4.0 PARA / 4.2 OS</text>
    <text x="660" y="1061" class="mono" font-size="10.5" fill="#7C8893">the toolkit and the knowledge layer clicking together</text>
    <text x="660" y="1086" class="mono" font-size="10.5" fill="#7C8893">EMAIL scheduled triage  ·····→  preview of Part 7</text>
  </g>

  <!-- ===== FOOTER LEGEND ===== -->
  <line x1="70" y1="1126" x2="1430" y2="1126" stroke="#2A3540" stroke-width="1"/>
  <text x="70" y="1148" class="mono" font-size="12.5" letter-spacing="0.5" fill="#C9D2D9">EVERY TACTIC = <tspan fill="#2DD4BF" font-weight="700">FUNDAMENTAL</tspan> + <tspan fill="#2DD4BF" font-weight="700">×AI MULTIPLIER</tspan>  ·  the multiplier is only as good as the bus behind it.</text>
  <text x="1430" y="1148" text-anchor="end" class="mono" font-size="11" fill="#5A6671">Command Bench · 2026-06-20</text>
</svg>
