<svg xmlns="http://www.w3.org/2000/svg" viewBox="0 0 1200 1500" font-family="'Inter','DejaVu Sans',system-ui,-apple-system,'Segoe UI','Helvetica Neue',Arial,sans-serif">
<defs>
<pattern id="dots" width="40" height="40" patternUnits="userSpaceOnUse">
  <circle cx="0" cy="0" r="1.1" fill="#1E2024" opacity="0.05"/></pattern>
<pattern id="hatchT" width="9" height="9" patternUnits="userSpaceOnUse" patternTransform="rotate(45)">
  <rect width="9" height="9" fill="#E7CBB4"/>
  <line x1="0" y1="0" x2="0" y2="9" stroke="#C2703D" stroke-width="1.1" opacity="0.55"/></pattern>
<pattern id="hatchTd" width="6" height="6" patternUnits="userSpaceOnUse" patternTransform="rotate(45)">
  <rect width="6" height="6" fill="#E7CBB4"/>
  <line x1="0" y1="0" x2="0" y2="6" stroke="#C2703D" stroke-width="1.1" opacity="0.6"/></pattern>
<pattern id="earth" width="14" height="14" patternUnits="userSpaceOnUse" patternTransform="rotate(45)">
  <rect width="14" height="14" fill="#DAD5CC"/>
  <line x1="0" y1="0" x2="0" y2="14" stroke="#9A958C" stroke-width="1" opacity="0.5"/></pattern>
<marker id="arrL" markerWidth="9" markerHeight="9" refX="6" refY="4.5" orient="auto"><path d="M8,1 L2,4.5 L8,8" fill="none" stroke="#1E2024" stroke-width="1.4"/></marker>
</defs>
<rect width="1200" height="1500" fill="#F4F1EA"/>
<rect width="1200" height="1500" fill="url(#dots)"/>
<rect x="28" y="28" width="1144" height="1444" fill="none" stroke="#1E2024" stroke-width="1" opacity="0.35"/>
<line x1="14" y1="28" x2="42" y2="28" stroke="#1E2024" stroke-width="1" opacity="0.5"/>
<line x1="28" y1="14" x2="28" y2="42" stroke="#1E2024" stroke-width="1" opacity="0.5"/>
<line x1="1158" y1="28" x2="1186" y2="28" stroke="#1E2024" stroke-width="1" opacity="0.5"/>
<line x1="1172" y1="14" x2="1172" y2="42" stroke="#1E2024" stroke-width="1" opacity="0.5"/>
<line x1="14" y1="1472" x2="42" y2="1472" stroke="#1E2024" stroke-width="1" opacity="0.5"/>
<line x1="28" y1="1458" x2="28" y2="1486" stroke="#1E2024" stroke-width="1" opacity="0.5"/>
<line x1="1158" y1="1472" x2="1186" y2="1472" stroke="#1E2024" stroke-width="1" opacity="0.5"/>
<line x1="1172" y1="1458" x2="1172" y2="1486" stroke="#1E2024" stroke-width="1" opacity="0.5"/>
<text x="60" y="92" font-size="13" fill="#C2703D" font-family="'JetBrains Mono','DejaVu Sans Mono','SF Mono',Consolas,ui-monospace,monospace" letter-spacing="3">APPEARANCE / ELEVATION — SHEET A1.0</text>
<text x="60" y="150" font-size="46" font-weight="700" fill="#1E2024" letter-spacing="2">THE WATCH DOESN’T FIX THE FACE.</text>
<line x1="60" y1="170" x2="1140" y2="170" stroke="#1E2024" stroke-width="1.4"/>
<text x="60" y="192" font-size="12.5" fill="#1E2024" opacity="0.75" font-family="'JetBrains Mono','DejaVu Sans Mono','SF Mono',Consolas,ui-monospace,monospace" letter-spacing="1">Part 1 of 7 · Appearance · the Attractive pillar</text>
<text x="1140" y="192" text-anchor="end" font-size="12.5" fill="#1E2024" opacity="0.6" font-family="'JetBrains Mono','DejaVu Sans Mono','SF Mono',Consolas,ui-monospace,monospace">scale: leverage · bottom = load-bearing</text>
<polygon points="63,420 69,420 81,1060 51,1060" fill="#C2703D" opacity="0.85"/>
<line x1="66" y1="420" x2="66" y2="1060" stroke="#F4F1EA" stroke-width="1" opacity="0.5"/>
<polygon points="51,1058 81,1058 66,1082" fill="#C2703D"/>
<text x="40" y="740" font-size="14" font-weight="700" fill="#C2703D" font-family="'JetBrains Mono','DejaVu Sans Mono','SF Mono',Consolas,ui-monospace,monospace" letter-spacing="3" transform="rotate(-90 40 740)" text-anchor="middle">LEVERAGE — HIGHEST AT THE BASE.</text>
<line x1="120" y1="1069" x2="1080" y2="1069" stroke="#1E2024" stroke-width="2"/>
<line x1="150" y1="1069" x2="142" y2="1079" stroke="#9A958C" stroke-width="1" opacity="0.5"/>
<line x1="176" y1="1069" x2="168" y2="1079" stroke="#9A958C" stroke-width="1" opacity="0.5"/>
<line x1="202" y1="1069" x2="194" y2="1079" stroke="#9A958C" stroke-width="1" opacity="0.5"/>
<line x1="228" y1="1069" x2="220" y2="1079" stroke="#9A958C" stroke-width="1" opacity="0.5"/>
<line x1="254" y1="1069" x2="246" y2="1079" stroke="#9A958C" stroke-width="1" opacity="0.5"/>
<line x1="280" y1="1069" x2="272" y2="1079" stroke="#9A958C" stroke-width="1" opacity="0.5"/>
<line x1="306" y1="1069" x2="298" y2="1079" stroke="#9A958C" stroke-width="1" opacity="0.5"/>
<line x1="332" y1="1069" x2="324" y2="1079" stroke="#9A958C" stroke-width="1" opacity="0.5"/>
<line x1="358" y1="1069" x2="350" y2="1079" stroke="#9A958C" stroke-width="1" opacity="0.5"/>
<line x1="384" y1="1069" x2="376" y2="1079" stroke="#9A958C" stroke-width="1" opacity="0.5"/>
<line x1="410" y1="1069" x2="402" y2="1079" stroke="#9A958C" stroke-width="1" opacity="0.5"/>
<line x1="436" y1="1069" x2="428" y2="1079" stroke="#9A958C" stroke-width="1" opacity="0.5"/>
<line x1="462" y1="1069" x2="454" y2="1079" stroke="#9A958C" stroke-width="1" opacity="0.5"/>
<line x1="488" y1="1069" x2="480" y2="1079" stroke="#9A958C" stroke-width="1" opacity="0.5"/>
<line x1="514" y1="1069" x2="506" y2="1079" stroke="#9A958C" stroke-width="1" opacity="0.5"/>
<line x1="540" y1="1069" x2="532" y2="1079" stroke="#9A958C" stroke-width="1" opacity="0.5"/>
<line x1="566" y1="1069" x2="558" y2="1079" stroke="#9A958C" stroke-width="1" opacity="0.5"/>
<line x1="592" y1="1069" x2="584" y2="1079" stroke="#9A958C" stroke-width="1" opacity="0.5"/>
<line x1="618" y1="1069" x2="610" y2="1079" stroke="#9A958C" stroke-width="1" opacity="0.5"/>
<line x1="644" y1="1069" x2="636" y2="1079" stroke="#9A958C" stroke-width="1" opacity="0.5"/>
<line x1="670" y1="1069" x2="662" y2="1079" stroke="#9A958C" stroke-width="1" opacity="0.5"/>
<line x1="696" y1="1069" x2="688" y2="1079" stroke="#9A958C" stroke-width="1" opacity="0.5"/>
<line x1="722" y1="1069" x2="714" y2="1079" stroke="#9A958C" stroke-width="1" opacity="0.5"/>
<line x1="748" y1="1069" x2="740" y2="1079" stroke="#9A958C" stroke-width="1" opacity="0.5"/>
<line x1="774" y1="1069" x2="766" y2="1079" stroke="#9A958C" stroke-width="1" opacity="0.5"/>
<line x1="800" y1="1069" x2="792" y2="1079" stroke="#9A958C" stroke-width="1" opacity="0.5"/>
<line x1="826" y1="1069" x2="818" y2="1079" stroke="#9A958C" stroke-width="1" opacity="0.5"/>
<line x1="852" y1="1069" x2="844" y2="1079" stroke="#9A958C" stroke-width="1" opacity="0.5"/>
<line x1="878" y1="1069" x2="870" y2="1079" stroke="#9A958C" stroke-width="1" opacity="0.5"/>
<line x1="904" y1="1069" x2="896" y2="1079" stroke="#9A958C" stroke-width="1" opacity="0.5"/>
<line x1="930" y1="1069" x2="922" y2="1079" stroke="#9A958C" stroke-width="1" opacity="0.5"/>
<line x1="956" y1="1069" x2="948" y2="1079" stroke="#9A958C" stroke-width="1" opacity="0.5"/>
<line x1="982" y1="1069" x2="974" y2="1079" stroke="#9A958C" stroke-width="1" opacity="0.5"/>
<line x1="1008" y1="1069" x2="1000" y2="1079" stroke="#9A958C" stroke-width="1" opacity="0.5"/>
<line x1="1034" y1="1069" x2="1026" y2="1079" stroke="#9A958C" stroke-width="1" opacity="0.5"/>
<line x1="1060" y1="1069" x2="1052" y2="1079" stroke="#9A958C" stroke-width="1" opacity="0.5"/>
<rect x="160" y="1075" width="760" height="168" fill="url(#earth)" stroke="#9A958C" stroke-width="2"/>
<text x="540.0" y="1101" text-anchor="middle" font-size="13.5" font-weight="700" fill="#9A958C" font-family="'JetBrains Mono','DejaVu Sans Mono','SF Mono',Consolas,ui-monospace,monospace" letter-spacing="1">THE CHRONIC BASE — built elsewhere, never claimed here:</text>
<line x1="255.0" y1="1117" x2="255.0" y2="1229" stroke="#9A958C" stroke-width="1.2" opacity="0.7"/>
<rect x="248.0" y="1221" width="14" height="14" fill="none" stroke="#9A958C" stroke-width="1.4"/>
<text x="255.0" y="1141" text-anchor="middle" font-size="13" font-weight="700" fill="#9A958C">LEANNESS</text>
<text x="255.0" y="1159" text-anchor="middle" font-size="10.5" fill="#9A958C" font-family="'JetBrains Mono','DejaVu Sans Mono','SF Mono',Consolas,ui-monospace,monospace">Fit</text>
<line x1="445.0" y1="1117" x2="445.0" y2="1229" stroke="#9A958C" stroke-width="1.2" opacity="0.7"/>
<rect x="438.0" y="1221" width="14" height="14" fill="none" stroke="#9A958C" stroke-width="1.4"/>
<text x="445.0" y="1141" text-anchor="middle" font-size="13" font-weight="700" fill="#9A958C">SKIN</text>
<text x="445.0" y="1159" text-anchor="middle" font-size="10.5" fill="#9A958C" font-family="'JetBrains Mono','DejaVu Sans Mono','SF Mono',Consolas,ui-monospace,monospace">Skin folder</text>
<line x1="350.0" y1="1083" x2="350.0" y2="1235" stroke="#9A958C" stroke-width="0.8" opacity="0.4" stroke-dasharray="2 3"/>
<line x1="635.0" y1="1117" x2="635.0" y2="1229" stroke="#9A958C" stroke-width="1.2" opacity="0.7"/>
<rect x="628.0" y="1221" width="14" height="14" fill="none" stroke="#9A958C" stroke-width="1.4"/>
<text x="635.0" y="1141" text-anchor="middle" font-size="13" font-weight="700" fill="#9A958C">RETENTION</text>
<text x="635.0" y="1159" text-anchor="middle" font-size="10.5" fill="#9A958C" font-family="'JetBrains Mono','DejaVu Sans Mono','SF Mono',Consolas,ui-monospace,monospace">Hair folder</text>
<line x1="540.0" y1="1083" x2="540.0" y2="1235" stroke="#9A958C" stroke-width="0.8" opacity="0.4" stroke-dasharray="2 3"/>
<line x1="825.0" y1="1117" x2="825.0" y2="1229" stroke="#9A958C" stroke-width="1.2" opacity="0.7"/>
<rect x="818.0" y="1221" width="14" height="14" fill="none" stroke="#9A958C" stroke-width="1.4"/>
<text x="825.0" y="1141" text-anchor="middle" font-size="13" font-weight="700" fill="#9A958C">RECOVERY</text>
<text x="825.0" y="1159" text-anchor="middle" font-size="10.5" fill="#9A958C" font-family="'JetBrains Mono','DejaVu Sans Mono','SF Mono',Consolas,ui-monospace,monospace">Healthy/Sleep</text>
<line x1="730.0" y1="1083" x2="730.0" y2="1235" stroke="#9A958C" stroke-width="0.8" opacity="0.4" stroke-dasharray="2 3"/>
<rect x="210" y="862" width="660" height="205" fill="url(#hatchTd)" stroke="#C2703D" stroke-width="2"/>
<text x="540" y="896" text-anchor="middle" font-size="12.5" fill="#C2703D" font-family="'JetBrains Mono','DejaVu Sans Mono','SF Mono',Consolas,ui-monospace,monospace" font-weight="700" letter-spacing="2">LAYER 1 · PHYSIOLOGY</text>
<text x="540" y="958" text-anchor="middle" font-size="44" font-weight="700" fill="#1E2024" letter-spacing="3">SUBSTRATE</text>
<text x="540" y="994" text-anchor="middle" font-size="21" fill="#1E2024">fluid · lymph · oral</text>
<text x="540" y="1032" text-anchor="middle" font-size="12.5" fill="#C2703D" font-family="'JetBrains Mono','DejaVu Sans Mono','SF Mono',Consolas,ui-monospace,monospace">Part 2.0 · WIDTH = LEVERAGE · the most leverage lives lowest</text>
<line x1="210" y1="846" x2="870" y2="846" stroke="#C2703D" stroke-width="1" marker-start="url(#arrL)" marker-end="url(#arrL)"/>
<line x1="210" y1="840" x2="210" y2="852" stroke="#C2703D" stroke-width="1"/>
<line x1="870" y1="840" x2="870" y2="852" stroke="#C2703D" stroke-width="1"/>
<rect x="270" y="710" width="540" height="140" fill="url(#hatchT)" stroke="#C2703D" stroke-width="2"/>
<text x="540" y="740" text-anchor="middle" font-size="12" fill="#C2703D" font-family="'JetBrains Mono','DejaVu Sans Mono','SF Mono',Consolas,ui-monospace,monospace" font-weight="700" letter-spacing="2">STILL PHYSIOLOGY (MEASURABLE) · Part 3.0</text>
<text x="540" y="784" text-anchor="middle" font-size="32" font-weight="700" fill="#1E2024" letter-spacing="2">FRAME</text>
<text x="540" y="814" text-anchor="middle" font-size="17" fill="#1E2024">the cut that frames the face</text>
<line x1="130" y1="695" x2="1080" y2="695" stroke="#1E2024" stroke-width="3"/>
<text x="135" y="683" font-size="13" font-weight="700" fill="#5E7585" font-family="'JetBrains Mono','DejaVu Sans Mono','SF Mono',Consolas,ui-monospace,monospace" letter-spacing="1">HONEST CONVENTION →</text>
<text x="135" y="717" font-size="13" font-weight="700" fill="#C2703D" font-family="'JetBrains Mono','DejaVu Sans Mono','SF Mono',Consolas,ui-monospace,monospace" letter-spacing="1">← MEASURABLE MECHANISM</text>
<text x="815" y="685" font-size="12.5" fill="#1E2024" opacity="0.6" font-style="italic">the line you don’t pretend isn’t there.</text>
<rect x="325" y="545" width="430" height="132" fill="#D6DEE2" stroke="#5E7585" stroke-width="2"/>
<text x="540" y="573" text-anchor="middle" font-size="11.5" fill="#5E7585" font-family="'JetBrains Mono','DejaVu Sans Mono','SF Mono',Consolas,ui-monospace,monospace" letter-spacing="2">LAYER 2 · PRESENTATION · Parts 4.0–6.0</text>
<text x="540" y="615" text-anchor="middle" font-size="29" font-weight="700" fill="#1E2024" letter-spacing="2">SIGNAL</text>
<text x="540" y="643" text-anchor="middle" font-size="14.5" fill="#1E2024">clothing · color · possessions · scent</text>
<text x="540" y="665" text-anchor="middle" font-size="11" fill="#5E7585" font-family="'JetBrains Mono','DejaVu Sans Mono','SF Mono',Consolas,ui-monospace,monospace">high visibility · lower leverage</text>
<rect x="385" y="415" width="310" height="118" fill="#D6DEE2" stroke="#5E7585" stroke-width="2"/>
<text x="540" y="441" text-anchor="middle" font-size="11" fill="#5E7585" font-family="'JetBrains Mono','DejaVu Sans Mono','SF Mono',Consolas,ui-monospace,monospace" letter-spacing="2">LAYER 3 · Part 7.0</text>
<text x="540" y="477" text-anchor="middle" font-size="25" font-weight="700" fill="#1E2024" letter-spacing="2">FLOOR</text>
<text x="540" y="503" text-anchor="middle" font-size="13.5" fill="#1E2024">the 1% audit + the gate</text>
<text x="540" y="521" text-anchor="middle" font-size="10.5" fill="#5E7585" font-family="'JetBrains Mono','DejaVu Sans Mono','SF Mono',Consolas,ui-monospace,monospace">a multiplier, not a substitute</text>
<circle cx="184" cy="964.5" r="13" fill="#F4F1EA" stroke="#C2703D" stroke-width="1.6"/>
<text x="184" cy="0" y="969.0" text-anchor="middle" font-size="14" font-weight="700" fill="#C2703D" font-family="'JetBrains Mono','DejaVu Sans Mono','SF Mono',Consolas,ui-monospace,monospace">1</text>
<circle cx="244" cy="780.0" r="13" fill="#F4F1EA" stroke="#C2703D" stroke-width="1.6"/>
<text x="244" cy="0" y="784.5" text-anchor="middle" font-size="14" font-weight="700" fill="#C2703D" font-family="'JetBrains Mono','DejaVu Sans Mono','SF Mono',Consolas,ui-monospace,monospace">2</text>
<circle cx="299" cy="611.0" r="13" fill="#F4F1EA" stroke="#5E7585" stroke-width="1.6"/>
<text x="299" cy="0" y="615.5" text-anchor="middle" font-size="14" font-weight="700" fill="#5E7585" font-family="'JetBrains Mono','DejaVu Sans Mono','SF Mono',Consolas,ui-monospace,monospace">3</text>
<circle cx="359" cy="474.0" r="13" fill="#F4F1EA" stroke="#5E7585" stroke-width="1.6"/>
<text x="359" cy="0" y="478.5" text-anchor="middle" font-size="14" font-weight="700" fill="#5E7585" font-family="'JetBrains Mono','DejaVu Sans Mono','SF Mono',Consolas,ui-monospace,monospace">4</text>
<g transform="rotate(11 1000 420)" opacity="0.92">
<rect x="905" y="250" width="235" height="70" fill="none" stroke="#D9483B" stroke-width="2" opacity="0.85"/>
<text x="1022.5" y="289.0" text-anchor="middle" font-size="12.5" font-weight="700" fill="#D9483B" font-family="'JetBrains Mono','DejaVu Sans Mono','SF Mono',Consolas,ui-monospace,monospace">WATCH · FIT · FRAGRANCE</text>
<text x="1022.5" y="313" text-anchor="middle" font-size="9" fill="#D9483B" opacity="0.8" font-family="'JetBrains Mono','DejaVu Sans Mono','SF Mono',Consolas,ui-monospace,monospace">the gleaming crown</text>
<rect x="935" y="326" width="175" height="52" fill="none" stroke="#D9483B" stroke-width="2" opacity="0.85"/>
<text x="1022.5" y="356.0" text-anchor="middle" font-size="12.5" font-weight="700" fill="#D9483B" font-family="'JetBrains Mono','DejaVu Sans Mono','SF Mono',Consolas,ui-monospace,monospace">signal</text>
<rect x="965" y="384" width="115" height="44" fill="none" stroke="#D9483B" stroke-width="2" opacity="0.85"/>
<text x="1022.5" y="410.0" text-anchor="middle" font-size="12.5" font-weight="700" fill="#D9483B" font-family="'JetBrains Mono','DejaVu Sans Mono','SF Mono',Consolas,ui-monospace,monospace">frame</text>
<rect x="995" y="434" width="55" height="40" fill="none" stroke="#D9483B" stroke-width="2" opacity="0.85"/>
<text x="1022.5" y="458.0" text-anchor="middle" font-size="12.5" font-weight="700" fill="#D9483B" font-family="'JetBrains Mono','DejaVu Sans Mono','SF Mono',Consolas,ui-monospace,monospace">substrate</text>
<text x="1022.5" y="467" text-anchor="middle" font-size="9" fill="#D9483B" opacity="0.8" font-family="'JetBrains Mono','DejaVu Sans Mono','SF Mono',Consolas,ui-monospace,monospace">(hollow)</text>
<polyline points="1000,476 1014,492 998,506 1018,524" fill="none" stroke="#D9483B" stroke-width="2"/>
<path d="M1150,300 q40,120 -30,210" fill="none" stroke="#D9483B" stroke-width="1.4" stroke-dasharray="3 5" opacity="0.7" marker-end="url(#arrL)"/>
</g>
<text x="1075" y="250" text-anchor="middle" font-size="14" font-weight="700" fill="#D9483B" font-family="'JetBrains Mono','DejaVu Sans Mono','SF Mono',Consolas,ui-monospace,monospace" transform="rotate(11 1075 250)">built top-down → it topples.</text>
<line x1="60" y1="1300" x2="1140" y2="1300" stroke="#1E2024" stroke-width="1.4"/>
<text x="600.0" y="1372" text-anchor="middle" font-size="52" font-weight="700" fill="#1E2024" letter-spacing="3">THE ORDER IS THE LEVERAGE.</text>
<text x="600.0" y="1412" text-anchor="middle" font-size="14" fill="#1E2024" opacity="0.78" font-family="'JetBrains Mono','DejaVu Sans Mono','SF Mono',Consolas,ui-monospace,monospace">substrate → frame → signal → floor · the watch is the last brick, not the first.</text>
<text x="600.0" y="1452" text-anchor="middle" font-size="11.5" fill="#C2703D" font-family="'JetBrains Mono','DejaVu Sans Mono','SF Mono',Consolas,ui-monospace,monospace" letter-spacing="1">below the line = measurable mechanism · above the line = honest convention</text>
</svg>