<svg xmlns="http://www.w3.org/2000/svg" width="1920" height="1540" viewBox="0 0 1920 1540" font-family="Inter, 'Helvetica Neue', 'DejaVu Sans', Arial, sans-serif">
<defs>
<linearGradient id="bg" x1="0" y1="0" x2="0" y2="1"><stop offset="0" stop-color="#0C1118"/><stop offset="1" stop-color="#0A0D12"/></linearGradient>
<pattern id="vgrid" width="80" height="80" patternUnits="userSpaceOnUse"><line x1="0" y1="0" x2="0" y2="80" stroke="#10161E" stroke-width="1" opacity="0.55"/></pattern>
<pattern id="hgrid" width="80" height="80" patternUnits="userSpaceOnUse"><line x1="0" y1="0" x2="80" y2="0" stroke="#10161E" stroke-width="1" opacity="0.35"/></pattern>
<pattern id="redhatch" width="12" height="12" patternUnits="userSpaceOnUse" patternTransform="rotate(45)"><line x1="0" y1="0" x2="0" y2="12" stroke="#7A2327" stroke-width="2.5" opacity="0.6"/></pattern>
<radialGradient id="orGlow" cx="0.5" cy="0.5" r="0.5"><stop offset="0" stop-color="#E68A3C" stop-opacity="0.55"/><stop offset="1" stop-color="#E68A3C" stop-opacity="0"/></radialGradient>
<radialGradient id="grGlow" cx="0.5" cy="0.5" r="0.5"><stop offset="0" stop-color="#5FBE74" stop-opacity="0.55"/><stop offset="1" stop-color="#5FBE74" stop-opacity="0"/></radialGradient>
<marker id="arrSlate" viewBox="0 0 10 10" refX="9" refY="5" markerWidth="7" markerHeight="7" orient="auto"><path d="M0,0 L10,5 L0,10 z" fill="#6A7585"/></marker>
<marker id="arrOr" viewBox="0 0 10 10" refX="9" refY="5" markerWidth="7" markerHeight="7" orient="auto"><path d="M0,0 L10,5 L0,10 z" fill="#E68A3C"/></marker>
<marker id="arrGr" viewBox="0 0 10 10" refX="9" refY="5" markerWidth="7" markerHeight="7" orient="auto"><path d="M0,0 L10,5 L0,10 z" fill="#5FBE74"/></marker>
<marker id="arrAm" viewBox="0 0 10 10" refX="9" refY="5" markerWidth="7" markerHeight="7" orient="auto"><path d="M0,0 L10,5 L0,10 z" fill="#E3B23C"/></marker>
</defs>

<rect x="0" y="0" width="1920" height="1540" fill="url(#bg)"/>
<rect x="0" y="0" width="1920" height="1540" fill="url(#vgrid)"/>
<rect x="0" y="0" width="1920" height="1540" fill="url(#hgrid)"/>

<!-- ================= HEADER ================= -->
<g id="header" font-family="'JetBrains Mono','DejaVu Sans Mono',Consolas,monospace">
<line x1="40" y1="42" x2="1880" y2="42" stroke="#46586A" stroke-width="1"/>
<line x1="40" y1="42" x2="40" y2="54" stroke="#46586A" stroke-width="1"/>
<line x1="1880" y1="42" x2="1880" y2="54" stroke="#46586A" stroke-width="1"/>
<text x="40" y="74" font-size="13" fill="#8C99A8" letter-spacing="2">FIT · PERFORMANCE ENHANCEMENT · PART 4.5 OF 5 — PROTECTION &amp; THE TOOLBOX · ARC CLOSE</text>
<text x="1880" y="74" font-size="13" fill="#6A7585" letter-spacing="2" text-anchor="end">INSTRUMENT № PE-4.5 · TWO-STAGE HPTA RE-IGNITION SEQUENCER</text>
<text x="40" y="142" font-family="Inter,'Helvetica Neue','DejaVu Sans',Arial,sans-serif" font-size="62" font-weight="600" fill="#E6ECF2" letter-spacing="0.5">RESTART, IN ORDER</text>
<text x="40" y="176" font-size="15" fill="#8C99A8">wake the body. then restart the brain. never both at once. coming off is its own skill.</text>
<text x="1880" y="118" font-size="13" fill="#E68A3C" text-anchor="end" letter-spacing="1">STAGE 1 SIGNAL: EXTERNAL / BORROWED</text>
<text x="1880" y="140" font-size="13" fill="#5FBE74" text-anchor="end" letter-spacing="1">STAGE 2 SIGNAL: SELF-DRIVEN</text>
<text x="1880" y="162" font-size="13" fill="#6A7585" text-anchor="end" letter-spacing="1">LOOP: HYPOTHALAMUS · PITUITARY · TESTES</text>
<line x1="40" y1="198" x2="1880" y2="198" stroke="#46586A" stroke-width="1"/>
</g>

<!-- ================= SEGMENT HEADER STRIP ================= -->
<g font-family="'JetBrains Mono','DejaVu Sans Mono',Consolas,monospace" font-size="12.5" letter-spacing="1.5">
<text x="200" y="236" fill="#6A7585" text-anchor="middle">[ BEFORE ]</text>
<text x="510" y="236" fill="#8C99A8" text-anchor="middle">CLEARANCE RUNWAY</text>
<text x="800" y="236" fill="#E68A3C" text-anchor="middle">STAGE 1 · WAKE THE TESTICLES</text>
<text x="1075" y="236" fill="#E6ECF2" text-anchor="middle">✕ INTERLOCK GATE</text>
<text x="1380" y="236" fill="#5FBE74" text-anchor="middle">STAGE 2 · RESTART THE BRAIN</text>
<text x="1700" y="236" fill="#5FBE74" text-anchor="middle">PHASE 3 · HOLD &amp; VERIFY</text>
<line x1="40" y1="250" x2="1880" y2="250" stroke="#2C3A48" stroke-width="1"/>
<line x1="360" y1="246" x2="360" y2="254" stroke="#46586A"/>
<line x1="640" y1="246" x2="640" y2="254" stroke="#46586A"/>
<line x1="950" y1="246" x2="950" y2="254" stroke="#46586A"/>
<line x1="1200" y1="246" x2="1200" y2="254" stroke="#46586A"/>
<line x1="1560" y1="246" x2="1560" y2="254" stroke="#46586A"/>
</g>

<!-- ================= LEFT — THE DORMANT LOOP ================= -->
<g id="dormant" font-family="'JetBrains Mono','DejaVu Sans Mono',Consolas,monospace">
<rect x="40" y="276" width="300" height="560" rx="8" fill="#0E141C" stroke="#2C3A48" stroke-width="1"/>
<text x="60" y="306" font-size="14" fill="#8C99A8" letter-spacing="1.2" font-weight="600">THE DORMANT LOOP</text>
<text x="60" y="326" font-size="11" fill="#5C6776">the cycle switched it dark</text>
<line x1="60" y1="338" x2="320" y2="338" stroke="#222B35"/>
<text x="60" y="366" font-size="10.5" fill="#5C6776">exogenous androgen →</text>
<text x="60" y="381" font-size="10.5" fill="#5C6776">brain sees plenty → GnRH off</text>
<rect x="92" y="396" width="196" height="58" rx="6" fill="#161D26" stroke="#33414F" stroke-width="1"/>
<circle cx="116" cy="425" r="6" fill="#3A4654"/>
<text x="134" y="421" font-size="12.5" fill="#7B8593">HYPOTHALAMUS</text>
<text x="134" y="438" font-size="10" fill="#4F5965">GnRH — silent</text>
<line x1="190" y1="454" x2="190" y2="500" stroke="#2A333E" stroke-width="2" stroke-dasharray="4 4"/>
<rect x="92" y="500" width="196" height="58" rx="6" fill="#161D26" stroke="#33414F" stroke-width="1"/>
<circle cx="116" cy="529" r="6" fill="#3A4654"/>
<text x="134" y="525" font-size="12.5" fill="#7B8593">PITUITARY</text>
<text x="134" y="542" font-size="10" fill="#4F5965">LH / FSH — silent</text>
<line x1="190" y1="558" x2="190" y2="604" stroke="#2A333E" stroke-width="2" stroke-dasharray="4 4"/>
<rect x="92" y="604" width="196" height="64" rx="6" fill="#161D26" stroke="#33414F" stroke-width="1"/>
<circle cx="116" cy="636" r="6" fill="#3A4654"/>
<text x="134" y="630" font-size="12.5" fill="#7B8593">TESTES</text>
<text x="134" y="646" font-size="10" fill="#4F5965">Leydig + Sertoli — quiet</text>
<text x="134" y="660" font-size="9.5" fill="#4F5965">(reduced volume)</text>
<path d="M92 636 L70 636 L70 425 L86 425" fill="none" stroke="#2A333E" stroke-width="1.5" stroke-dasharray="3 4"/>
<rect x="56" y="700" width="268" height="116" rx="6" fill="#15110A" stroke="#6E5526" stroke-width="1"/>
<circle cx="78" cy="724" r="7" fill="#E68A3C"/><circle cx="78" cy="724" r="13" fill="url(#orGlow)"/>
<text x="98" y="722" font-size="12" fill="#E6B97A" letter-spacing="0.5" font-weight="600">PILOT LIGHT · THE EASY PATH</text>
<text x="68" y="744" font-size="10.5" fill="#9B8A6A">INTRA-CYCLE MAINTENANCE — keep low-</text>
<text x="68" y="759" font-size="10.5" fill="#9B8A6A">dose hCG running DURING the cycle so</text>
<text x="68" y="774" font-size="10.5" fill="#9B8A6A">the testicles never go fully dormant.</text>
<text x="68" y="794" font-size="10.5" fill="#C9954E">far easier to maintain sensitivity</text>
<text x="68" y="809" font-size="10.5" fill="#C9954E">than to resurrect it.</text>
</g>
<line x1="340" y1="556" x2="392" y2="556" stroke="#46586A" stroke-width="2" marker-end="url(#arrSlate)"/>

<!-- ================= THE THREE LOOP RAILS ================= -->
<g id="rails" font-family="'JetBrains Mono','DejaVu Sans Mono',Consolas,monospace">
<text x="1872" y="356" font-size="11" fill="#5C6776" text-anchor="end">HYPOTHALAMUS RAIL</text>
<text x="1872" y="466" font-size="11" fill="#5C6776" text-anchor="end">PITUITARY RAIL</text>
<text x="1872" y="636" font-size="11" fill="#5C6776" text-anchor="end">TESTES RAIL (Leydig·Sertoli)</text>
<line x1="392" y1="360" x2="1240" y2="360" stroke="#2A333E" stroke-width="3"/>
<line x1="1240" y1="360" x2="1820" y2="360" stroke="#5FBE74" stroke-width="3"/>
<line x1="392" y1="470" x2="1240" y2="470" stroke="#2A333E" stroke-width="3"/>
<line x1="1240" y1="470" x2="1820" y2="470" stroke="#5FBE74" stroke-width="3"/>
<line x1="392" y1="640" x2="700" y2="640" stroke="#2A333E" stroke-width="3"/>
<line x1="700" y1="640" x2="1620" y2="640" stroke="#E68A3C" stroke-width="3"/>
<line x1="1620" y1="640" x2="1820" y2="640" stroke="#5FBE74" stroke-width="3"/>
<path d="M1300 360 L1300 410 L1300 460" fill="none" stroke="#5FBE74" stroke-width="2" marker-end="url(#arrGr)" opacity="0.85"/>
<text x="1312" y="416" font-size="9.5" fill="#5FBE74">GnRH→</text>
<path d="M1340 470 L1340 555 L1340 632" fill="none" stroke="#5FBE74" stroke-width="2" marker-end="url(#arrGr)" opacity="0.85"/>
<text x="1352" y="556" font-size="9.5" fill="#5FBE74">LH/FSH→</text>
<path d="M1700 640 L1760 640 L1760 460 L1700 460" fill="none" stroke="#5FBE74" stroke-width="1.6" stroke-dasharray="4 4" opacity="0.7"/>
<text x="1620" y="700" font-size="9.5" fill="#5FBE74">testosterone feeds back — loop closes on its own</text>
</g>

<!-- ================= CLEARANCE RUNWAY ================= -->
<g id="runway" font-family="'JetBrains Mono','DejaVu Sans Mono',Consolas,monospace">
<rect x="384" y="730" width="252" height="172" rx="6" fill="#10161E" stroke="#2C3A48" stroke-width="1"/>
<text x="402" y="758" font-size="13" fill="#E6ECF2" letter-spacing="1" font-weight="600">CLEARANCE SETS THE CLOCK</text>
<rect x="402" y="772" width="216" height="14" rx="3" fill="#161D26" stroke="#33414F"/>
<g stroke="#5C6776" stroke-width="2">
<line x1="416" y1="779" x2="436" y2="779"/><line x1="452" y1="779" x2="472" y2="779"/><line x1="488" y1="779" x2="508" y2="779"/><line x1="524" y1="779" x2="544" y2="779"/><line x1="560" y1="779" x2="580" y2="779"/>
</g>
<text x="402" y="808" font-size="10.5" fill="#8C99A8">ester-length dial sets the runway:</text>
<text x="402" y="824" font-size="10" fill="#6A7585">short ester / oral .......... days</text>
<text x="402" y="838" font-size="10" fill="#6A7585">enanthate · cypionate ...... ~2 wks</text>
<text x="402" y="852" font-size="10" fill="#6A7585">undecanoate · deca ......... longer</text>
<text x="402" y="874" font-size="10.5" fill="#C9954E">the longer the ester, the longer you wait</text>
<text x="402" y="890" font-size="10.5" fill="#C9954E">last dose + clearance = SERM start date</text>
<circle cx="600" cy="844" r="22" fill="none" stroke="#46586A" stroke-width="1.5"/>
<line x1="600" y1="844" x2="600" y2="826" stroke="#C9954E" stroke-width="2"/>
<line x1="600" y1="844" x2="613" y2="852" stroke="#C9954E" stroke-width="2"/>
</g>
<text x="510" y="930" font-size="10" fill="#5C6776" font-family="'JetBrains Mono','DejaVu Sans Mono',Consolas,monospace" text-anchor="middle">Stage-1 wake-up may overlap the tail of clearance; the SERM phase waits for a clean runway.</text>

<!-- ================= STAGE 1 ================= -->
<g id="stage1" font-family="'JetBrains Mono','DejaVu Sans Mono',Consolas,monospace">
<rect x="652" y="276" width="288" height="300" rx="8" fill="#150F08" stroke="#6E5526" stroke-width="1.2"/>
<text x="672" y="306" font-size="14" fill="#E68A3C" letter-spacing="0.8" font-weight="700">STAGE 1 · WAKE THE TESTICLES</text>
<text x="672" y="324" font-size="11" fill="#9B8A6A">~2–3 wks · lights the loop from the BOTTOM</text>
<line x1="672" y1="336" x2="920" y2="336" stroke="#3A2E18"/>
<text x="672" y="362" font-size="11.5" fill="#E6B97A" font-weight="600">hCG → mimics LH</text>
<text x="672" y="378" font-size="10" fill="#9B8A6A">→ Leydig cells → testosterone + volume</text>
<text x="672" y="393" font-size="9.5" fill="#7E7152">~500–1,000 IU EOD (wake) · ~250–500 IU 2–3×/wk (maintain)</text>
<text x="672" y="420" font-size="11.5" fill="#E6B97A" font-weight="600">hMG → mimics FSH</text>
<text x="672" y="436" font-size="10" fill="#9B8A6A">→ Sertoli cells → sperm (real FSH · pricey)</text>
<text x="672" y="451" font-size="9.5" fill="#7E7152">~75 IU 2–3×/wk · reserved for fertility</text>
<rect x="672" y="464" width="248" height="40" rx="5" fill="#1A130A" stroke="#6E5526"/>
<circle cx="690" cy="484" r="5" fill="#E68A3C"/>
<text x="704" y="481" font-size="10.5" fill="#E6B97A">EXTERNAL SIGNAL — pituitary still quiet.</text>
<text x="704" y="496" font-size="10" fill="#9B8A6A">the loop is being driven FROM OUTSIDE.</text>
<rect x="672" y="512" width="248" height="52" rx="5" fill="#1A1606" stroke="#7A6320"/>
<text x="682" y="530" font-size="10" fill="#E3B23C" font-weight="600">! DON'T MEGA-DOSE</text>
<text x="682" y="545" font-size="9.3" fill="#B9A45F">one 5,000 IU hit spikes aromatase → estrogen →</text>
<text x="682" y="558" font-size="9.3" fill="#B9A45F">desensitizes the Leydig cells. small + frequent wins.</text>
</g>
<path d="M796 576 L796 640" stroke="#E68A3C" stroke-width="2.5" marker-end="url(#arrOr)"/>
<circle cx="700" cy="640" r="6" fill="#E68A3C"/><circle cx="700" cy="640" r="13" fill="url(#orGlow)"/>

<!-- ================= INTERLOCK GATE (HERO) ================= -->
<g id="interlock" font-family="'JetBrains Mono','DejaVu Sans Mono',Consolas,monospace">
<rect x="952" y="300" width="246" height="250" rx="8" fill="#11171F" stroke="#5E6C7B" stroke-width="2"/>
<text x="1075" y="332" font-size="15" fill="#E6ECF2" letter-spacing="0.8" font-weight="700" text-anchor="middle">THE INTERLOCK</text>
<text x="1075" y="350" font-size="10.5" fill="#8C99A8" text-anchor="middle">one drive bus · only ONE input at a time</text>
<rect x="978" y="378" width="86" height="44" rx="5" fill="#1A130A" stroke="#6E5526"/>
<text x="1021" y="398" font-size="9.5" fill="#E6B97A" text-anchor="middle">hCG / hMG</text>
<text x="1021" y="412" font-size="8.5" fill="#9B8A6A" text-anchor="middle">STOP FIRST</text>
<rect x="1086" y="378" width="86" height="44" rx="5" fill="#0C1810" stroke="#3F6B49"/>
<text x="1129" y="398" font-size="9.5" fill="#7FCB90" text-anchor="middle">SERMs</text>
<text x="1129" y="412" font-size="8.5" fill="#6FA77E" text-anchor="middle">THEN START</text>
<circle cx="1075" cy="400" r="15" fill="#161D26" stroke="#5E6C7B" stroke-width="1.5"/>
<path d="M1075 400 L1062 392" stroke="#A7B3C1" stroke-width="2.5"/>
<path d="M1064 400 L1086 400" stroke="#46586A" stroke-width="1" stroke-dasharray="2 2"/>
<rect x="972" y="436" width="206" height="40" rx="5" fill="#0E141C" stroke="#46586A"/>
<text x="1075" y="455" font-size="11.5" fill="#E6ECF2" text-anchor="middle" font-weight="600">STOP GONADOTROPINS</text>
<text x="1075" y="470" font-size="11.5" fill="#E6ECF2" text-anchor="middle" font-weight="600">→ THEN START SERMs</text>
<text x="1075" y="498" font-size="10" fill="#8C99A8" text-anchor="middle">accelerator + brake at once</text>
<text x="1075" y="512" font-size="10" fill="#8C99A8" text-anchor="middle">= the loop stays dark</text>
<text x="1075" y="536" font-size="9.5" fill="#5C6776" text-anchor="middle">because gonadotropins suppress the pituitary</text>
</g>

<!-- RED FAULT inset -->
<g id="fault" font-family="'JetBrains Mono','DejaVu Sans Mono',Consolas,monospace">
<rect x="952" y="566" width="246" height="146" rx="6" fill="#1A0C0D" stroke="#D9484F" stroke-width="1.4"/>
<rect x="952" y="566" width="246" height="146" rx="6" fill="url(#redhatch)" opacity="0.4"/>
<text x="972" y="592" font-size="12" fill="#F0848A" letter-spacing="0.8" font-weight="700">✕ FAULT — BOTH STAGES ENERGIZED</text>
<g transform="translate(972,604)">
<rect x="0" y="0" width="44" height="30" rx="4" fill="#2A1112" stroke="#D9484F"/><text x="22" y="19" font-size="9" fill="#F0848A" text-anchor="middle">SERM ▼</text>
<rect x="56" y="0" width="44" height="30" rx="4" fill="#2A1112" stroke="#D9484F"/><text x="78" y="19" font-size="9" fill="#F0848A" text-anchor="middle">hCG ▼</text>
<text x="116" y="14" font-size="9" fill="#C97A7E">accelerator</text>
<text x="116" y="26" font-size="9" fill="#C97A7E">+ brake together</text>
</g>
<text x="972" y="658" font-size="9.3" fill="#C97A7E">run hCG into the SERM window → the brain never gets</text>
<text x="972" y="671" font-size="9.3" fill="#C97A7E">its "estrogen is low, make your own LH" cue.</text>
<text x="972" y="688" font-size="9.5" fill="#E58B90">months suppressed — while you believe you're recovering.</text>
</g>

<!-- ================= STAGE 2 ================= -->
<g id="stage2" font-family="'JetBrains Mono','DejaVu Sans Mono',Consolas,monospace">
<rect x="1212" y="276" width="316" height="304" rx="8" fill="#0B130D" stroke="#3F6B49" stroke-width="1.2"/>
<text x="1232" y="306" font-size="14" fill="#5FBE74" letter-spacing="0.8" font-weight="700">STAGE 2 · RESTART THE BRAIN</text>
<text x="1232" y="324" font-size="11" fill="#7FAE89">~4 wks tapering · lights the loop from the TOP</text>
<line x1="1232" y1="336" x2="1508" y2="336" stroke="#1E3A26"/>
<text x="1232" y="362" font-size="11" fill="#A9D6B3">SERMs → block estrogen feedback → brain reads</text>
<text x="1232" y="377" font-size="11" fill="#A9D6B3">"estrogen low" → ramps its OWN GnRH → LH/FSH.</text>
<rect x="1232" y="392" width="276" height="46" rx="5" fill="#0E1810" stroke="#3F6B49"/>
<text x="1242" y="410" font-size="11" fill="#7FCB90" font-weight="600">ENCLOMIPHENE — preferred</text>
<text x="1242" y="424" font-size="9.3" fill="#7C9A84">~12.5–25 → taper 6.25–12.5 mg/day</text>
<text x="1242" y="434" font-size="8.8" fill="#5F7A67">trans-isomer only — drops Clomid's mood/visual sides (4.2)</text>
<text x="1232" y="462" font-size="10.5" fill="#A9D6B3">TAMOXIFEN ~20 → 10 mg/day — where gyno is a concern</text>
<text x="1232" y="478" font-size="9.3" fill="#5F7A67">(blocks estrogen at breast tissue)</text>
<rect x="1232" y="488" width="276" height="30" rx="5" fill="#10161E" stroke="#46586A"/>
<text x="1242" y="507" font-size="9.3" fill="#8C99A8">TRIPTORELIN — single-shot GnRH agonist · potent · timing-unforgiving · know it exists</text>
<rect x="1232" y="524" width="276" height="44" rx="5" fill="#1A1606" stroke="#7A6320"/>
<text x="1242" y="542" font-size="10" fill="#E3B23C" font-weight="600">! KEEP SOME ESTROGEN</text>
<text x="1242" y="557" font-size="9.3" fill="#B9A45F">it's part of the signal (libido, joints, bone). manage the</text>
<text x="1242" y="567" font-size="9.3" fill="#B9A45F">rebound — don't crush it with an AI or you blunt recovery.</text>
</g>
<path d="M1300 580 L1300 470 L1300 372" stroke="#5FBE74" stroke-width="2.5" marker-end="url(#arrGr)"/>
<circle cx="1240" cy="360" r="6" fill="#5FBE74"/><circle cx="1240" cy="360" r="13" fill="url(#grGlow)"/>
<text x="1245" y="338" font-size="9" fill="#5FBE74" font-family="'JetBrains Mono','DejaVu Sans Mono',Consolas,monospace">colour flip → SELF-DRIVEN</text>

<!-- ================= PHASE 3 — VERIFY ================= -->
<g id="verify" font-family="'JetBrains Mono','DejaVu Sans Mono',Consolas,monospace">
<rect x="1572" y="276" width="308" height="304" rx="8" fill="#0B130D" stroke="#3F6B49" stroke-width="1.2"/>
<text x="1592" y="306" font-size="14" fill="#5FBE74" letter-spacing="0.8" font-weight="700">PHASE 3 · HOLD &amp; VERIFY</text>
<text x="1592" y="324" font-size="11" fill="#7FAE89">a bloodwork verdict — not a feelings check</text>
<line x1="1592" y1="336" x2="1860" y2="336" stroke="#1E3A26"/>
<text x="1592" y="360" font-size="10.5" fill="#8C99A8">compare BASELINE (Test·LH·FSH·SHBG — "know your hole")</text>
<text x="1592" y="375" font-size="10.5" fill="#8C99A8">vs ~4–6 wks POST final SERM.</text>
<rect x="1592" y="388" width="268" height="46" rx="5" fill="#0E1810" stroke="#5FBE74" stroke-width="1.4"/>
<circle cx="1612" cy="411" r="7" fill="#5FBE74"/><circle cx="1612" cy="411" r="13" fill="url(#grGlow)"/>
<text x="1630" y="406" font-size="11.5" fill="#7FCB90" font-weight="700">RECOVERED</text>
<text x="1630" y="421" font-size="9.3" fill="#7C9A84">LH &amp; FSH climbed · Test healthy WITHOUT help</text>
<text x="1630" y="431" font-size="9.3" fill="#5F7A67">→ the loop holds on its own.</text>
<rect x="1592" y="442" width="268" height="38" rx="5" fill="#1A1606" stroke="#7A6320"/>
<circle cx="1612" cy="461" r="6" fill="#E3B23C"/>
<text x="1628" y="458" font-size="10.5" fill="#E3B23C" font-weight="600">PARTIAL</text>
<text x="1628" y="472" font-size="9.3" fill="#B9A45F">LH up · Test lagging → more time / short hCG nudge</text>
<rect x="1592" y="488" width="268" height="38" rx="5" fill="#15140C" stroke="#5A5333"/>
<circle cx="1612" cy="507" r="6" fill="#8C8155"/>
<text x="1628" y="504" font-size="10.5" fill="#B9A45F" font-weight="600">NOT RECOVERED</text>
<text x="1628" y="518" font-size="9.3" fill="#8A8468">LH flat → brain hasn't restarted → reassess w/ physician</text>
<rect x="1592" y="534" width="268" height="30" rx="5" fill="#10161E" stroke="#46586A"/>
<text x="1726" y="553" font-size="11" fill="#E6ECF2" text-anchor="middle" letter-spacing="1">THE-NUMBER-IS-THE-BOSS · verify with bloods, not feelings</text>
</g>

<!-- ================= SUPPORT LAYER ================= -->
<g id="support" font-family="'JetBrains Mono','DejaVu Sans Mono',Consolas,monospace">
<rect x="652" y="960" width="876" height="118" rx="6" fill="#0E141C" stroke="#2C3A48" stroke-width="1" stroke-dasharray="6 4"/>
<text x="672" y="988" font-size="13" fill="#8C99A8" letter-spacing="1" font-weight="600">SUPPORT LAYER — THE FLOOR, NOT THE ENGINE</text>
<text x="672" y="1005" font-size="10" fill="#5C6776">wired to nothing on the loop · makes the crash manageable · restarts nothing</text>
<g font-size="10" fill="#7B8593">
<text x="672" y="1030">D3 + zinc — synthesis base</text>
<text x="672" y="1046">boron — ↓SHBG → more free T</text>
<text x="672" y="1062">Tongkat Ali + KSM-66 ashwagandha — LH signalling · cortisol</text>
<text x="1090" y="1030">nutrition — hold maintenance / slight deficit</text>
<text x="1090" y="1046">(the SERM appetite surge is how people go soft · ~80% retention)</text>
<text x="1090" y="1062">training — hold the stimulus, drop volume to match low androgen</text>
</g>
<line x1="700" y1="660" x2="700" y2="956" stroke="#222B35" stroke-width="1" stroke-dasharray="2 6" opacity="0.5"/>
</g>

<!-- ================= FERTILITY BRANCH ================= -->
<g id="fertility" font-family="'JetBrains Mono','DejaVu Sans Mono',Consolas,monospace">
<path d="M796 656 L796 740 L660 740" fill="none" stroke="#6E5526" stroke-width="1.6" marker-end="url(#arrOr)" stroke-dasharray="5 4"/>
<rect x="384" y="940" width="252" height="138" rx="6" fill="#150F08" stroke="#6E5526" stroke-width="1"/>
<text x="402" y="966" font-size="12.5" fill="#E6B97A" letter-spacing="0.5" font-weight="600">FERTILITY BRANCH</text>
<text x="402" y="983" font-size="10" fill="#9B8A6A">GOAL = A CHILD → the one case the two</text>
<text x="402" y="997" font-size="10" fill="#9B8A6A">gonadotropins run TOGETHER.</text>
<text x="402" y="1018" font-size="9.5" fill="#7E7152">hCG ~500–1,000 IU EOD + hMG ~75–150 IU EOD</text>
<text x="402" y="1032" font-size="9.5" fill="#7E7152">(pushed harder / longer)</text>
<text x="402" y="1050" font-size="10" fill="#C9954E">scorecard = SEMEN ANALYSIS, not testosterone</text>
<text x="402" y="1067" font-size="9.3" fill="#7E7152">"do you want kids, and when" is a PRE-cycle decision (Part 1)</text>
</g>

<!-- ================= TWO-JOBS LOCKUP ================= -->
<g font-family="'JetBrains Mono','DejaVu Sans Mono',Consolas,monospace">
<rect x="952" y="730" width="246" height="120" rx="6" fill="#10161E" stroke="#2C3A48"/>
<text x="1075" y="756" font-size="11.5" fill="#E6ECF2" text-anchor="middle" font-weight="600" letter-spacing="0.5">TWO JOBS, ONE LOOP</text>
<line x1="975" y1="766" x2="1175" y2="766" stroke="#222B35"/>
<circle cx="978" cy="788" r="5" fill="#E68A3C"/>
<text x="992" y="785" font-size="9.8" fill="#E6B97A">WAKE THE TESTICLES =</text>
<text x="992" y="798" font-size="9.3" fill="#9B8A6A">gonadotropins (mimic LH/FSH directly)</text>
<circle cx="978" cy="822" r="5" fill="#5FBE74"/>
<text x="992" y="819" font-size="9.8" fill="#7FCB90">RESTART THE BRAIN =</text>
<text x="992" y="832" font-size="9.3" fill="#7C9A84">SERMs (trick it into driving its own)</text>
</g>

<!-- ================= CAVEAT PLATE ================= -->
<g id="caveat" font-family="'JetBrains Mono','DejaVu Sans Mono',Consolas,monospace">
<rect x="1572" y="960" width="308" height="118" rx="6" fill="#15140C" stroke="#5A5333" stroke-width="1"/>
<text x="1592" y="986" font-size="11.5" fill="#B9A45F" letter-spacing="0.5" font-weight="600">! RECOVERY IS NOT GUARANTEED</text>
<text x="1592" y="1004" font-size="9.3" fill="#8A8468">— and not symmetric. longer suppressed · older · more</text>
<text x="1592" y="1018" font-size="9.3" fill="#8A8468">aggressive compounds = less complete, slower bounce-back.</text>
<text x="1592" y="1036" font-size="9.3" fill="#8A8468">some land lower than they started; a few stay on lifelong</text>
<text x="1592" y="1050" font-size="9.3" fill="#8A8468">TRT — a chosen destination, not an accident.</text>
<text x="1592" y="1070" font-size="9.6" fill="#C9954E">the surest protection is the restraint that came before PCT.</text>
</g>

<!-- ================= EYE-PATH RIBBON ================= -->
<g font-family="'JetBrains Mono','DejaVu Sans Mono',Consolas,monospace" font-size="10" letter-spacing="1">
<line x1="40" y1="1118" x2="1880" y2="1118" stroke="#2C3A48"/>
<text x="40" y="1144" fill="#5C6776">EYE PATH:</text>
<text x="150" y="1144" fill="#7B8593">dark dormant loop</text>
<text x="320" y="1144" fill="#6A7585">→</text>
<text x="345" y="1144" fill="#7B8593">clearance clock</text>
<text x="490" y="1144" fill="#6A7585">→</text>
<text x="515" y="1144" fill="#E68A3C">Stage 1 lights the bottom from outside</text>
<text x="855" y="1144" fill="#6A7585">→</text>
<text x="880" y="1144" fill="#E6ECF2">INTERLOCK + the one red fault</text>
<text x="1190" y="1144" fill="#6A7585">→</text>
<text x="1215" y="1144" fill="#5FBE74">Stage 2 lights the top · colour flips self-driven</text>
<text x="1620" y="1144" fill="#6A7585">→</text>
<text x="1645" y="1144" fill="#5FBE74">VERIFY = the only green</text>
</g>

<!-- ================= RESTART TIMELINE ================= -->
<g id="timeline" font-family="'JetBrains Mono','DejaVu Sans Mono',Consolas,monospace">
<text x="40" y="1212" font-size="13" fill="#8C99A8" letter-spacing="1" font-weight="600">RESTART TIMELINE — honest durations, but the gravity is the gate, not the calendar</text>
<line x1="40" y1="1228" x2="1880" y2="1228" stroke="#222B35"/>
<line x1="120" y1="1330" x2="1840" y2="1330" stroke="#46586A" stroke-width="1.5"/>
<text x="40" y="1335" font-size="10" fill="#5C6776">t = 0</text>
<text x="1872" y="1300" font-size="10" fill="#5C6776" text-anchor="end">weeks →</text>
<rect x="120" y="1300" width="230" height="22" rx="3" fill="#161D26" stroke="#46586A" stroke-dasharray="5 4"/>
<text x="235" y="1315" font-size="10" fill="#8C99A8" text-anchor="middle">CLEARANCE · days–weeks</text>
<text x="235" y="1356" font-size="9" fill="#5C6776" text-anchor="middle">set by ester length</text>
<rect x="358" y="1300" width="330" height="22" rx="3" fill="#1A130A" stroke="#6E5526"/>
<rect x="358" y="1300" width="330" height="22" rx="3" fill="#E68A3C" opacity="0.18"/>
<text x="523" y="1315" font-size="10" fill="#E6B97A" text-anchor="middle">STAGE 1 · WAKE TESTICLES · ~2–3 wks</text>
<text x="523" y="1356" font-size="9" fill="#7E7152" text-anchor="middle">loop driven from OUTSIDE</text>
<line x1="700" y1="1284" x2="700" y2="1340" stroke="#E6ECF2" stroke-width="2"/>
<rect x="676" y="1262" width="48" height="20" rx="3" fill="#11171F" stroke="#5E6C7B"/>
<text x="700" y="1276" font-size="9" fill="#E6ECF2" text-anchor="middle">✕ GATE</text>
<text x="700" y="1372" font-size="9" fill="#8C99A8" text-anchor="middle">STOP hCG → THEN SERMs</text>
<rect x="712" y="1300" width="560" height="22" rx="3" fill="#0E1810" stroke="#3F6B49"/>
<rect x="712" y="1300" width="560" height="22" rx="3" fill="#5FBE74" opacity="0.16"/>
<text x="992" y="1315" font-size="10" fill="#7FCB90" text-anchor="middle">STAGE 2 · RESTART BRAIN (SERM taper) · ~4 wks — loop now SELF-DRIVEN</text>
<rect x="1282" y="1300" width="558" height="22" rx="3" fill="#0E1810" stroke="#5FBE74" stroke-dasharray="6 4"/>
<text x="1561" y="1315" font-size="10" fill="#7FCB90" text-anchor="middle">HOLD &amp; VERIFY · bloods at ~4–6 wks post-SERM → RECOVERED?</text>
</g>

<!-- ================= FOOTER ================= -->
<g id="footer" font-family="'JetBrains Mono','DejaVu Sans Mono',Consolas,monospace">
<line x1="40" y1="1480" x2="1880" y2="1480" stroke="#46586A" stroke-width="1"/>
<text x="40" y="1508" font-size="11.5" fill="#6A7585">hCG · hMG · Triptorelin · enclomiphene · tamoxifen = prescription-only. Illustrative ranges, not a protocol. Harm-reduction education, not medical advice.</text>
<text x="1880" y="1508" font-size="11.5" fill="#5C6776" text-anchor="end">IF YOU'RE SO SMART, WHY ARE YOU NOT — FIT / PERFORMANCE ENHANCEMENT · PART 4.5</text>
</g>
</svg>
