<svg xmlns="http://www.w3.org/2000/svg" viewBox="0 0 1200 1720" width="1200" height="1720">
<defs>
<radialGradient id="bgglow" cx="50%" cy="22%" r="75%"><stop offset="0%" stop-color="#0E0F13"/><stop offset="100%" stop-color="#000000"/></radialGradient>
<filter id="lit" x="-40%" y="-40%" width="180%" height="180%"><feGaussianBlur stdDeviation="6" result="b"/><feMerge><feMergeNode in="b"/><feMergeNode in="SourceGraphic"/></feMerge></filter>
<pattern id="grid" width="40" height="40" patternUnits="userSpaceOnUse"><path d="M40 0 H0 V40" fill="none" stroke="#FFFFFF" stroke-width="0.5" opacity="0.025"/></pattern>
</defs>
<rect x="0" y="0" width="1200" height="1720" rx="0" fill="url(#bgglow)"/>
<rect x="0" y="0" width="1200" height="1720" rx="0" fill="url(#grid)"/>
<rect x="20" y="20" width="1160" height="1680" rx="6" fill="none" stroke="#26272D" stroke-width="1"/>
<rect x="20" y="20" width="1160" height="1680" rx="0" fill="none" stroke="#000000" stroke-width="0"/>
<rect x="64" y="60" width="10" height="10" rx="0" fill="#41D9A4"/>
<text x="86" y="69" font-size="12" fill="#41D9A4" font-family="DejaVu Sans Mono, monospace" text-anchor="start" letter-spacing="1.5" font-weight="700">FIT · PE · PART 4.2  —  CHOOSING YOUR ANCILLARIES</text>
<rect x="856" y="61" width="9" height="9" rx="2" fill="#41D9A4"/>
<text x="869" y="69" font-size="10" fill="#A1A1AA" font-family="DejaVu Sans Mono, monospace" text-anchor="start" letter-spacing="0" font-weight="700">SEATED</text>
<rect x="926" y="61" width="9" height="9" rx="2" fill="#E0A33E"/>
<text x="939" y="69" font-size="10" fill="#A1A1AA" font-family="DejaVu Sans Mono, monospace" text-anchor="start" letter-spacing="0" font-weight="700">CAUTION</text>
<rect x="996" y="61" width="9" height="9" rx="2" fill="#E5484D"/>
<text x="1009" y="69" font-size="10" fill="#A1A1AA" font-family="DejaVu Sans Mono, monospace" text-anchor="start" letter-spacing="0" font-weight="700">REJECT</text>
<rect x="1066" y="61" width="9" height="9" rx="2" fill="#6A6B73"/>
<text x="1079" y="69" font-size="10" fill="#A1A1AA" font-family="DejaVu Sans Mono, monospace" text-anchor="start" letter-spacing="0" font-weight="700">DIMMED</text>
<line x1="64" y1="82" x2="1136" y2="82" stroke="#26272D" stroke-width="1"/>
<text x="64" y="138" font-size="47" fill="#F4F4F5" font-family="DejaVu Sans, system-ui, sans-serif" font-weight="700" text-anchor="start" letter-spacing="-0.5">The class does the job.</text>
<text x="64" y="190" font-size="47" fill="#41D9A4" font-family="DejaVu Sans, system-ui, sans-serif" font-weight="700" text-anchor="start" letter-spacing="-0.5">The member decides the fit.</text>
<text x="64" y="224" font-size="15.5" fill="#A1A1AA" font-family="DejaVu Sans, system-ui, sans-serif" text-anchor="start" letter-spacing="0">Within a family, every member does the same job. You choose by side-effects, half-life,</text>
<text x="64" y="245" font-size="15.5" fill="#A1A1AA" font-family="DejaVu Sans, system-ui, sans-serif" text-anchor="start" letter-spacing="0">selectivity, interactions, and what each one also does.</text>
<rect x="64" y="262" width="1072" height="36" rx="6" fill="#141519" stroke="#26272D" stroke-width="1"/>
<rect x="64" y="262" width="86" height="36" rx="6" fill="#1B1C21"/>
<text x="107" y="284.0" font-size="11" fill="#41D9A4" font-family="DejaVu Sans Mono, monospace" text-anchor="middle" letter-spacing="0" font-weight="700">RULE</text>
<text x="168" y="284.5" font-size="12" fill="#F4F4F5" font-family="DejaVu Sans Mono, monospace" text-anchor="start" letter-spacing="0">SAME SOCKET, DIFFERENT SKIRT  —  choose by:  side-effects · half-life · selectivity · interactions · also-does · already-handled</text>
<rect x="64" y="308" width="120" height="30" rx="4" fill="#101117" stroke="#26272D" stroke-width="1"/>
<text x="124.0" y="327.0" font-size="11" fill="#A1A1AA" font-family="DejaVu Sans Mono, monospace" text-anchor="middle" letter-spacing="0" font-weight="700">FAMILY (3.1)</text>
<text x="195" y="328.0" font-size="14" fill="#41D9A4" font-family="DejaVu Sans Mono, monospace" text-anchor="middle" letter-spacing="0">→</text>
<rect x="206" y="308" width="110" height="30" rx="4" fill="#101117" stroke="#26272D" stroke-width="1"/>
<text x="261.0" y="327.0" font-size="11" fill="#A1A1AA" font-family="DejaVu Sans Mono, monospace" text-anchor="middle" letter-spacing="0" font-weight="700">LOADS (3.0)</text>
<text x="327" y="328.0" font-size="14" fill="#41D9A4" font-family="DejaVu Sans Mono, monospace" text-anchor="middle" letter-spacing="0">→</text>
<rect x="338" y="308" width="168" height="30" rx="4" fill="#101117" stroke="#26272D" stroke-width="1"/>
<text x="422.0" y="327.0" font-size="11" fill="#A1A1AA" font-family="DejaVu Sans Mono, monospace" text-anchor="middle" letter-spacing="0" font-weight="700">BIOMARKER (2.0/4.1)</text>
<text x="517" y="328.0" font-size="14" fill="#41D9A4" font-family="DejaVu Sans Mono, monospace" text-anchor="middle" letter-spacing="0">→</text>
<rect x="528" y="308" width="150" height="30" rx="4" fill="#101117" stroke="#26272D" stroke-width="1"/>
<text x="603.0" y="327.0" font-size="11" fill="#A1A1AA" font-family="DejaVu Sans Mono, monospace" text-anchor="middle" letter-spacing="0" font-weight="700">ANCILLARY (4.0)</text>
<text x="1136" y="327.5" font-size="11.5" fill="#8C8D95" font-family="DejaVu Sans, system-ui, sans-serif" text-anchor="end" letter-spacing="0" font-style="italic">left-to-right is the whole logic</text>
<rect x="64" y="356" width="1072" height="268" rx="8" fill="#0E0F12" stroke="#33353D" stroke-width="1.5"/>
<text x="86" y="390" font-size="24" fill="#F4F4F5" font-family="DejaVu Sans, system-ui, sans-serif" font-weight="700" text-anchor="start" letter-spacing="0">STATIN TRAY</text>
<text x="269" y="390" font-size="13" fill="#A1A1AA" font-family="DejaVu Sans, system-ui, sans-serif" text-anchor="start" letter-spacing="0" font-style="italic">the single most useful split in the entire ancillary world</text>
<rect x="1044" y="372" width="70" height="22" rx="11.0" fill="#11241F" stroke="#1E4B40" stroke-width="1"/>
<text x="1079.0" y="386.78" font-size="10.5" fill="#41D9A4" font-family="DejaVu Sans Mono, monospace" text-anchor="middle" letter-spacing="0" font-weight="700">HERO</text>
<line x1="86" y1="404" x2="1114" y2="404" stroke="#26272D" stroke-width="1"/>
<rect x="86" y="418" width="486" height="150" rx="7" fill="#11241F" stroke="#41D9A4" stroke-width="1.6" opacity="1"/>
<rect x="102" y="432" width="454" height="22" rx="5" fill="#0C1A16" stroke="#1E4B40" stroke-width="1"/>
<text x="329.0" y="447" font-size="10.5" fill="#41D9A4" font-family="DejaVu Sans Mono, monospace" text-anchor="middle" letter-spacing="0" font-weight="700">MOUNTING FLANGE  ·  LDL ↓  (the shared job)</text>
<path d="M 138 470 C 158.28 494.7 154.12 514.72 138 514.72 C 121.88 514.72 117.72 494.7 138 470 Z" fill="#5BC8D9" opacity="1.0"/>
<text x="138" y="536" font-size="10" fill="#0a1416" font-family="DejaVu Sans Mono, monospace" text-anchor="middle" letter-spacing="0" font-weight="700">H₂O</text>
<text x="178" y="490" font-size="19" fill="#F4F4F5" font-family="DejaVu Sans, system-ui, sans-serif" font-weight="700" text-anchor="start" letter-spacing="0">ROSUVASTATIN</text>
<text x="178" y="511" font-size="12" fill="#5BC8D9" font-family="DejaVu Sans Mono, monospace" text-anchor="start" letter-spacing="0" font-weight="700">HYDROPHILIC</text>
<rect x="468" y="474" width="86" height="24" rx="12.0" fill="#41D9A4"/>
<text x="511.0" y="489.96" font-size="11" fill="#08130F" font-family="DejaVu Sans Mono, monospace" text-anchor="middle" letter-spacing="0" font-weight="700">● SEATED</text>
<rect x="532" y="510" width="12" height="40" rx="6.0" fill="#1A1B1F" stroke="#26272D" stroke-width="1"/>
<rect x="532" y="542.8" width="12" height="7.199999999999999" rx="6.0" fill="#41D9A4"/>
<text x="538" y="564" font-size="9" fill="#A1A1AA" font-family="DejaVu Sans Mono, monospace" text-anchor="middle" letter-spacing="0">ACHE</text>
<text x="178" y="536" font-size="11.5" fill="#CFEFE4" font-family="DejaVu Sans, system-ui, sans-serif" text-anchor="start" letter-spacing="0">liver-selective · barely enters muscle · most potent</text>
<text x="178" y="554" font-size="11.5" fill="#9FCFC0" font-family="DejaVu Sans, system-ui, sans-serif" text-anchor="start" letter-spacing="0">few interactions · ~19h half-life (dose anytime)</text>
<line x1="560" y1="552" x2="610" y2="530" stroke="#41D9A4" stroke-width="1" opacity="0.5" stroke-dasharray="3 3"/>
<line x1="560" y1="552" x2="610" y2="566" stroke="#41D9A4" stroke-width="1" opacity="0.5" stroke-dasharray="3 3"/>
<rect x="590" y="418" width="524" height="150" rx="7" fill="#101013" stroke="#26272D" stroke-width="1.2" opacity="1"/>
<rect x="604" y="432" width="496" height="22" rx="5" fill="#15130E" stroke="#3a2e18" stroke-width="1"/>
<text x="852.0" y="447" font-size="10.5" fill="#8C8D95" font-family="DejaVu Sans Mono, monospace" text-anchor="middle" letter-spacing="0" font-weight="700">SAME FLANGE · LDL ↓</text>
<path d="M 632 472 C 650.72 494.8 646.88 513.28 632 513.28 C 617.12 513.28 613.28 494.8 632 472 Z" fill="#C9904B" opacity="0.85"/>
<text x="668" y="490" font-size="16" fill="#8C8D95" font-family="DejaVu Sans, system-ui, sans-serif" font-weight="700" text-anchor="start" letter-spacing="0">SIMVASTATIN 80</text>
<text x="668" y="510" font-size="12" fill="#C9904B" font-family="DejaVu Sans Mono, monospace" text-anchor="start" letter-spacing="0" font-weight="700">LIPOPHILIC</text>
<text x="1056" y="536" font-size="9" fill="#A1A1AA" font-family="DejaVu Sans Mono, monospace" text-anchor="middle" letter-spacing="0">ACHE</text>
<rect x="1050" y="490" width="12" height="40" rx="6.0" fill="#1A1B1F" stroke="#26272D" stroke-width="1"/>
<rect x="1050" y="495.6" width="12" height="34.4" rx="6.0" fill="#E0A33E"/>
<rect x="668" y="521" width="118" height="20" rx="10.0" fill="#1A1B1F" stroke="#26272D" stroke-width="1"/>
<text x="727.0" y="534.6" font-size="10" fill="#6A6B73" font-family="DejaVu Sans Mono, monospace" text-anchor="middle" letter-spacing="0" font-weight="700">DIMMED</text>
<text x="668" y="558" font-size="11" fill="#E0A33E" font-family="DejaVu Sans, system-ui, sans-serif" text-anchor="start" letter-spacing="0">diffuses into muscle → aches</text>
<text x="668" y="574" font-size="11" fill="#E0A33E" font-family="DejaVu Sans, system-ui, sans-serif" text-anchor="start" letter-spacing="0">that blunt your sessions</text>
<rect x="86" y="579" width="720" height="26" rx="13" fill="#0C1A16" stroke="#1E4B40" stroke-width="1"/>
<text x="102" y="597" font-size="11" fill="#41D9A4" font-family="DejaVu Sans Mono, monospace" text-anchor="start" letter-spacing="0" font-weight="700">⚑ WATER-SOLUBLE = GENTLER ON MUSCLE.  “Rosuva is fat-soluble”? Backwards.</text>
<rect x="818" y="579" width="296" height="26" rx="13" fill="#101117" stroke="#26272D" stroke-width="1"/>
<text x="832" y="597" font-size="9.5" fill="#A1A1AA" font-family="DejaVu Sans Mono, monospace" text-anchor="start" letter-spacing="0" font-weight="700">+ EZETIMIBE: close the OTHER door, dose LOW</text>
<rect x="64" y="648" width="524" height="200" rx="7" fill="#0E0F12" stroke="#26272D" stroke-width="1.2"/>
<text x="82" y="675" font-size="15" fill="#F4F4F5" font-family="DejaVu Sans, system-ui, sans-serif" font-weight="700" text-anchor="start" letter-spacing="0">ARBs</text>
<text x="133.6" y="675" font-size="11" fill="#A1A1AA" font-family="DejaVu Sans, system-ui, sans-serif" text-anchor="start" letter-spacing="0" font-style="italic">(which sartan?)</text>
<rect x="502" y="660" width="74" height="18" rx="9.0" fill="#101117" stroke="#26272D" stroke-width="1"/>
<text x="539.0" y="672.24" font-size="9" fill="#8C8D95" font-family="DejaVu Sans Mono, monospace" text-anchor="middle" letter-spacing="0" font-weight="700">BP/RENAL</text>
<line x1="82" y1="684" x2="570" y2="684" stroke="#26272D" stroke-width="1"/>
<rect x="76.0" y="706.0" width="24" height="5" rx="2.5" fill="#41D9A4"/>
<rect x="79.5" y="713.0" width="3" height="9" rx="1" fill="#41D9A4" opacity="0.85"/>
<rect x="86.5" y="713.0" width="3" height="6" rx="1" fill="#41D9A4" opacity="0.85"/>
<rect x="93.5" y="713.0" width="3" height="11" rx="1" fill="#41D9A4" opacity="0.85"/>
<text x="110" y="716.0" font-size="12.5" fill="#F4F4F5" font-family="DejaVu Sans, system-ui, sans-serif" font-weight="700" text-anchor="start" letter-spacing="0">TELMISARTAN</text>
<rect x="502" y="704.0" width="64" height="18" rx="9.0" fill="#11241F" stroke="#1E4B40" stroke-width="1"/>
<text x="534.0" y="716.42" font-size="9.5" fill="#41D9A4" font-family="DejaVu Sans Mono, monospace" text-anchor="middle" letter-spacing="0" font-weight="700">SEAT*</text>
<text x="110" y="732.0" font-size="10.5" fill="#A1A1AA" font-family="DejaVu Sans, system-ui, sans-serif" text-anchor="start" letter-spacing="0">lipophilic · ~24h flat · LVH-reversal · partial PPAR-γ</text>
<rect x="76.0" y="742.0" width="24" height="5" rx="2.5" fill="#6A6B73"/>
<rect x="79.5" y="749.0" width="3" height="9" rx="1" fill="#6A6B73" opacity="0.85"/>
<rect x="86.5" y="749.0" width="3" height="6" rx="1" fill="#6A6B73" opacity="0.85"/>
<rect x="93.5" y="749.0" width="3" height="11" rx="1" fill="#6A6B73" opacity="0.85"/>
<text x="110" y="752.0" font-size="12.5" fill="#8C8D95" font-family="DejaVu Sans, system-ui, sans-serif" font-weight="700" text-anchor="start" letter-spacing="0">IRBESARTAN</text>
<rect x="502" y="740.0" width="64" height="18" rx="9.0" fill="#161619" stroke="#26272D" stroke-width="1"/>
<text x="534.0" y="752.42" font-size="9.5" fill="#6A6B73" font-family="DejaVu Sans Mono, monospace" text-anchor="middle" letter-spacing="0" font-weight="700">ALT</text>
<text x="110" y="768.0" font-size="10.5" fill="#8C8D95" font-family="DejaVu Sans, system-ui, sans-serif" text-anchor="start" letter-spacing="0">renal-protective · re-seat with tadalafil once penetration is covered</text>
<rect x="76.0" y="778.0" width="24" height="5" rx="2.5" fill="#6A6B73"/>
<rect x="79.5" y="785.0" width="3" height="9" rx="1" fill="#6A6B73" opacity="0.85"/>
<rect x="86.5" y="785.0" width="3" height="6" rx="1" fill="#6A6B73" opacity="0.85"/>
<rect x="93.5" y="785.0" width="3" height="11" rx="1" fill="#6A6B73" opacity="0.85"/>
<text x="110" y="788.0" font-size="12.5" fill="#8C8D95" font-family="DejaVu Sans, system-ui, sans-serif" font-weight="700" text-anchor="start" letter-spacing="0">LOSARTAN</text>
<rect x="502" y="776.0" width="64" height="18" rx="9.0" fill="#161619" stroke="#26272D" stroke-width="1"/>
<text x="534.0" y="788.42" font-size="9.5" fill="#6A6B73" font-family="DejaVu Sans Mono, monospace" text-anchor="middle" letter-spacing="0" font-weight="700">DIM</text>
<text x="110" y="804.0" font-size="10.5" fill="#8C8D95" font-family="DejaVu Sans, system-ui, sans-serif" text-anchor="start" letter-spacing="0">weakest, unless you are also fighting uric acid</text>
<rect x="74" y="814" width="504" height="18" rx="4" fill="#2C2413" opacity="0.9"/>
<text x="84" y="827" font-size="9.8" fill="#E0A33E" font-family="DejaVu Sans Mono, monospace" text-anchor="start" letter-spacing="0" font-weight="700">REDUNDANCY DIMMER: GLP-1 seated → telmisartan's PPAR-γ greys to NICE-TO-HAVE</text>
<rect x="612" y="648" width="524" height="200" rx="7" fill="#0E0F12" stroke="#26272D" stroke-width="1.2"/>
<text x="630" y="675" font-size="15" fill="#F4F4F5" font-family="DejaVu Sans, system-ui, sans-serif" font-weight="700" text-anchor="start" letter-spacing="0">MRAs</text>
<text x="681.6" y="675" font-size="11" fill="#A1A1AA" font-family="DejaVu Sans, system-ui, sans-serif" text-anchor="start" letter-spacing="0" font-style="italic">(aldosterone blockers)</text>
<rect x="1043" y="660" width="81" height="18" rx="9.0" fill="#101117" stroke="#26272D" stroke-width="1"/>
<text x="1083.5" y="672.24" font-size="9" fill="#8C8D95" font-family="DejaVu Sans Mono, monospace" text-anchor="middle" letter-spacing="0" font-weight="700">BP/CARDIO</text>
<line x1="630" y1="684" x2="1118" y2="684" stroke="#26272D" stroke-width="1"/>
<rect x="624.0" y="706.0" width="24" height="5" rx="2.5" fill="#41D9A4"/>
<rect x="627.5" y="713.0" width="3" height="9" rx="1" fill="#41D9A4" opacity="0.85"/>
<rect x="634.5" y="713.0" width="3" height="6" rx="1" fill="#41D9A4" opacity="0.85"/>
<rect x="641.5" y="713.0" width="3" height="11" rx="1" fill="#41D9A4" opacity="0.85"/>
<text x="658" y="716.0" font-size="12.5" fill="#F4F4F5" font-family="DejaVu Sans, system-ui, sans-serif" font-weight="700" text-anchor="start" letter-spacing="0">EPLERENONE</text>
<rect x="1050" y="704.0" width="64" height="18" rx="9.0" fill="#11241F" stroke="#1E4B40" stroke-width="1"/>
<text x="1082.0" y="716.42" font-size="9.5" fill="#41D9A4" font-family="DejaVu Sans Mono, monospace" text-anchor="middle" letter-spacing="0" font-weight="700">SEAT</text>
<text x="658" y="732.0" font-size="10.5" fill="#A1A1AA" font-family="DejaVu Sans, system-ui, sans-serif" text-anchor="start" letter-spacing="0">selective · no gyno · the clean pick</text>
<path d="M 624.0 742.0 L 648.0 742.0 L 645.0 747.0 L 648.0 752.0 L 624.0 752.0 L 627.0 747.0 Z" fill="#E5484D"/>
<rect x="627.5" y="749.0" width="3" height="9" rx="1" fill="#E5484D" opacity="0.85"/>
<rect x="634.5" y="749.0" width="3" height="6" rx="1" fill="#E5484D" opacity="0.85"/>
<rect x="641.5" y="749.0" width="3" height="11" rx="1" fill="#E5484D" opacity="0.85"/>
<text x="658" y="752.0" font-size="12.5" fill="#E5484D" font-family="DejaVu Sans, system-ui, sans-serif" font-weight="700" text-anchor="start" letter-spacing="0">SPIRONOLACTONE</text>
<rect x="1050" y="740.0" width="64" height="18" rx="9.0" fill="#2E1416" stroke="#5a2326" stroke-width="1"/>
<text x="1082.0" y="752.42" font-size="9.5" fill="#E5484D" font-family="DejaVu Sans Mono, monospace" text-anchor="middle" letter-spacing="0" font-weight="700">REJECT</text>
<text x="658" y="768.0" font-size="10.5" fill="#E5484D" font-family="DejaVu Sans, system-ui, sans-serif" text-anchor="start" letter-spacing="0">blocks androgen receptors → gyno → sabotages your cycle</text>
<rect x="624.0" y="778.0" width="24" height="5" rx="2.5" fill="#6A6B73"/>
<rect x="627.5" y="785.0" width="3" height="9" rx="1" fill="#6A6B73" opacity="0.85"/>
<rect x="634.5" y="785.0" width="3" height="6" rx="1" fill="#6A6B73" opacity="0.85"/>
<rect x="641.5" y="785.0" width="3" height="11" rx="1" fill="#6A6B73" opacity="0.85"/>
<text x="658" y="788.0" font-size="12.5" fill="#8C8D95" font-family="DejaVu Sans, system-ui, sans-serif" font-weight="700" text-anchor="start" letter-spacing="0">FINERENONE</text>
<rect x="1050" y="776.0" width="64" height="18" rx="9.0" fill="#161619" stroke="#26272D" stroke-width="1"/>
<text x="1082.0" y="788.42" font-size="9.5" fill="#6A6B73" font-family="DejaVu Sans Mono, monospace" text-anchor="middle" letter-spacing="0" font-weight="700">ALT</text>
<text x="658" y="804.0" font-size="10.5" fill="#8C8D95" font-family="DejaVu Sans, system-ui, sans-serif" text-anchor="start" letter-spacing="0">newest cardio-renal · effective but expensive</text>
<rect x="622" y="814" width="504" height="18" rx="4" fill="#2C2413" opacity="0.9"/>
<text x="632" y="827" font-size="9.8" fill="#E0A33E" font-family="DejaVu Sans Mono, monospace" text-anchor="start" letter-spacing="0" font-weight="700">INTERLOCK: do NOT stack MRA + ARB + thiazide unsupervised (potassium / dehydration)</text>
<rect x="64" y="866" width="524" height="200" rx="7" fill="#0E0F12" stroke="#26272D" stroke-width="1.2"/>
<text x="82" y="893" font-size="15" fill="#F4F4F5" font-family="DejaVu Sans, system-ui, sans-serif" font-weight="700" text-anchor="start" letter-spacing="0">BP ADJUNCTS</text>
<rect x="460" y="878" width="116" height="18" rx="9.0" fill="#101117" stroke="#26272D" stroke-width="1"/>
<text x="518.0" y="890.24" font-size="9" fill="#8C8D95" font-family="DejaVu Sans Mono, monospace" text-anchor="middle" letter-spacing="0" font-weight="700">BLOOD PRESSURE</text>
<line x1="82" y1="902" x2="570" y2="902" stroke="#26272D" stroke-width="1"/>
<rect x="76.0" y="924.0" width="24" height="5" rx="2.5" fill="#41D9A4"/>
<rect x="79.5" y="931.0" width="3" height="9" rx="1" fill="#41D9A4" opacity="0.85"/>
<rect x="86.5" y="931.0" width="3" height="6" rx="1" fill="#41D9A4" opacity="0.85"/>
<rect x="93.5" y="931.0" width="3" height="11" rx="1" fill="#41D9A4" opacity="0.85"/>
<text x="110" y="934.0" font-size="12.5" fill="#F4F4F5" font-family="DejaVu Sans, system-ui, sans-serif" font-weight="700" text-anchor="start" letter-spacing="0">TADALAFIL</text>
<rect x="502" y="922.0" width="64" height="18" rx="9.0" fill="#11241F" stroke="#1E4B40" stroke-width="1"/>
<text x="534.0" y="934.42" font-size="9.5" fill="#41D9A4" font-family="DejaVu Sans Mono, monospace" text-anchor="middle" letter-spacing="0" font-weight="700">SEAT</text>
<text x="110" y="950.0" font-size="10.5" fill="#A1A1AA" font-family="DejaVu Sans, system-ui, sans-serif" text-anchor="start" letter-spacing="0">PDE5 · ~17.5h · pump + prostate + mild diuresis</text>
<rect x="76.0" y="960.0" width="24" height="5" rx="2.5" fill="#41D9A4"/>
<rect x="79.5" y="967.0" width="3" height="9" rx="1" fill="#41D9A4" opacity="0.85"/>
<rect x="86.5" y="967.0" width="3" height="6" rx="1" fill="#41D9A4" opacity="0.85"/>
<rect x="93.5" y="967.0" width="3" height="11" rx="1" fill="#41D9A4" opacity="0.85"/>
<text x="110" y="970.0" font-size="12.5" fill="#F4F4F5" font-family="DejaVu Sans, system-ui, sans-serif" font-weight="700" text-anchor="start" letter-spacing="0">NEBIVOLOL</text>
<rect x="502" y="958.0" width="64" height="18" rx="9.0" fill="#11241F" stroke="#1E4B40" stroke-width="1"/>
<text x="534.0" y="970.42" font-size="9.5" fill="#41D9A4" font-family="DejaVu Sans Mono, monospace" text-anchor="middle" letter-spacing="0" font-weight="700">COND</text>
<text x="110" y="986.0" font-size="10.5" fill="#A1A1AA" font-family="DejaVu Sans, system-ui, sans-serif" text-anchor="start" letter-spacing="0">β1 + NO factory · the heart-rate lever for creeping RHR</text>
<rect x="76.0" y="996.0" width="24" height="5" rx="2.5" fill="#E0A33E"/>
<rect x="79.5" y="1003.0" width="3" height="9" rx="1" fill="#E0A33E" opacity="0.85"/>
<rect x="86.5" y="1003.0" width="3" height="6" rx="1" fill="#E0A33E" opacity="0.85"/>
<rect x="93.5" y="1003.0" width="3" height="11" rx="1" fill="#E0A33E" opacity="0.85"/>
<text x="110" y="1006.0" font-size="12.5" fill="#D9C9A6" font-family="DejaVu Sans, system-ui, sans-serif" font-weight="700" text-anchor="start" letter-spacing="0">AMLODIPINE / INDAPAMIDE</text>
<rect x="502" y="994.0" width="64" height="18" rx="9.0" fill="#2C2413" stroke="#5a4520" stroke-width="1"/>
<text x="534.0" y="1006.42" font-size="9.5" fill="#E0A33E" font-family="DejaVu Sans Mono, monospace" text-anchor="middle" letter-spacing="0" font-weight="700">CAUTION</text>
<text x="110" y="1022.0" font-size="10.5" fill="#E0A33E" font-family="DejaVu Sans, system-ui, sans-serif" text-anchor="start" letter-spacing="0">ankle-edema masks steroid water · indapamide is NOT a get-drier tool</text>
<rect x="74" y="1032" width="504" height="18" rx="4" fill="#2C2413" opacity="0.9"/>
<text x="84" y="1045" font-size="9.8" fill="#E0A33E" font-family="DejaVu Sans Mono, monospace" text-anchor="start" letter-spacing="0" font-weight="700">NO pathway: nebivolol = factory, tadalafil = dam (same axis, opposite ends)</text>
<rect x="612" y="866" width="524" height="200" rx="7" fill="#0E0F12" stroke="#26272D" stroke-width="1.2"/>
<text x="630" y="893" font-size="15" fill="#F4F4F5" font-family="DejaVu Sans, system-ui, sans-serif" font-weight="700" text-anchor="start" letter-spacing="0">GLUCOSE</text>
<text x="711.3" y="893" font-size="11" fill="#A1A1AA" font-family="DejaVu Sans, system-ui, sans-serif" text-anchor="start" letter-spacing="0" font-style="italic">/ insulin-sensitivity</text>
<rect x="1043" y="878" width="81" height="18" rx="9.0" fill="#101117" stroke="#26272D" stroke-width="1"/>
<text x="1083.5" y="890.24" font-size="9" fill="#8C8D95" font-family="DejaVu Sans Mono, monospace" text-anchor="middle" letter-spacing="0" font-weight="700">METABOLIC</text>
<line x1="630" y1="902" x2="1118" y2="902" stroke="#26272D" stroke-width="1"/>
<rect x="624.0" y="924.0" width="24" height="5" rx="2.5" fill="#41D9A4"/>
<rect x="627.5" y="931.0" width="3" height="9" rx="1" fill="#41D9A4" opacity="0.85"/>
<rect x="634.5" y="931.0" width="3" height="6" rx="1" fill="#41D9A4" opacity="0.85"/>
<rect x="641.5" y="931.0" width="3" height="11" rx="1" fill="#41D9A4" opacity="0.85"/>
<text x="658" y="934.0" font-size="12.5" fill="#F4F4F5" font-family="DejaVu Sans, system-ui, sans-serif" font-weight="700" text-anchor="start" letter-spacing="0">METFORMIN / BERBERINE</text>
<rect x="1050" y="922.0" width="64" height="18" rx="9.0" fill="#11241F" stroke="#1E4B40" stroke-width="1"/>
<text x="1082.0" y="934.42" font-size="9.5" fill="#41D9A4" font-family="DejaVu Sans Mono, monospace" text-anchor="middle" letter-spacing="0" font-weight="700">SEAT</text>
<text x="658" y="950.0" font-size="10.5" fill="#A1A1AA" font-family="DejaVu Sans, system-ui, sans-serif" text-anchor="start" letter-spacing="0">GH-resistance · dose AWAY from training (AMPK ⊣ mTOR)</text>
<rect x="624.0" y="960.0" width="24" height="5" rx="2.5" fill="#41D9A4"/>
<rect x="627.5" y="967.0" width="3" height="9" rx="1" fill="#41D9A4" opacity="0.85"/>
<rect x="634.5" y="967.0" width="3" height="6" rx="1" fill="#41D9A4" opacity="0.85"/>
<rect x="641.5" y="967.0" width="3" height="11" rx="1" fill="#41D9A4" opacity="0.85"/>
<text x="658" y="970.0" font-size="12.5" fill="#F4F4F5" font-family="DejaVu Sans, system-ui, sans-serif" font-weight="700" text-anchor="start" letter-spacing="0">SGLT2i</text>
<rect x="1050" y="958.0" width="64" height="18" rx="9.0" fill="#11241F" stroke="#1E4B40" stroke-width="1"/>
<text x="1082.0" y="970.42" font-size="9.5" fill="#41D9A4" font-family="DejaVu Sans Mono, monospace" text-anchor="middle" letter-spacing="0" font-weight="700">CUT</text>
<text x="658" y="986.0" font-size="10.5" fill="#A1A1AA" font-family="DejaVu Sans, system-ui, sans-serif" text-anchor="start" letter-spacing="0">calorie-dump + BP/water + cardio-renal — best on a cut</text>
<rect x="624.0" y="996.0" width="24" height="5" rx="2.5" fill="#E0A33E"/>
<rect x="627.5" y="1003.0" width="3" height="9" rx="1" fill="#E0A33E" opacity="0.85"/>
<rect x="634.5" y="1003.0" width="3" height="6" rx="1" fill="#E0A33E" opacity="0.85"/>
<rect x="641.5" y="1003.0" width="3" height="11" rx="1" fill="#E0A33E" opacity="0.85"/>
<text x="658" y="1006.0" font-size="12.5" fill="#D9C9A6" font-family="DejaVu Sans, system-ui, sans-serif" font-weight="700" text-anchor="start" letter-spacing="0">TZDs</text>
<rect x="1050" y="994.0" width="64" height="18" rx="9.0" fill="#2C2413" stroke="#5a4520" stroke-width="1"/>
<text x="1082.0" y="1006.42" font-size="9.5" fill="#E0A33E" font-family="DejaVu Sans Mono, monospace" text-anchor="middle" letter-spacing="0" font-weight="700">AVOID</text>
<text x="658" y="1022.0" font-size="10.5" fill="#E0A33E" font-family="DejaVu Sans, system-ui, sans-serif" text-anchor="start" letter-spacing="0">PPAR-γ partitioning is seductive, but fluid masks conditioning</text>
<rect x="622" y="1032" width="504" height="18" rx="4" fill="#2C2413" opacity="0.9"/>
<text x="632" y="1045" font-size="9.8" fill="#E0A33E" font-family="DejaVu Sans Mono, monospace" text-anchor="start" letter-spacing="0" font-weight="700">retatrutide manages glucose centrally → sidesteps the AMPK/mTOR muscle-blunt</text>
<rect x="64" y="1084" width="524" height="200" rx="7" fill="#0E0F12" stroke="#26272D" stroke-width="1.2"/>
<text x="82" y="1111" font-size="15" fill="#F4F4F5" font-family="DejaVu Sans, system-ui, sans-serif" font-weight="700" text-anchor="start" letter-spacing="0">THYROID</text>
<text x="163.3" y="1111" font-size="11" fill="#A1A1AA" font-family="DejaVu Sans, system-ui, sans-serif" text-anchor="start" letter-spacing="0" font-style="italic">(T4 vs T3)</text>
<rect x="495" y="1096" width="81" height="18" rx="9.0" fill="#101117" stroke="#26272D" stroke-width="1"/>
<text x="535.5" y="1108.24" font-size="9" fill="#8C8D95" font-family="DejaVu Sans Mono, monospace" text-anchor="middle" letter-spacing="0" font-weight="700">ENDOCRINE</text>
<line x1="82" y1="1120" x2="570" y2="1120" stroke="#26272D" stroke-width="1"/>
<rect x="76.0" y="1142.0" width="24" height="5" rx="2.5" fill="#41D9A4"/>
<rect x="79.5" y="1149.0" width="3" height="9" rx="1" fill="#41D9A4" opacity="0.85"/>
<rect x="86.5" y="1149.0" width="3" height="6" rx="1" fill="#41D9A4" opacity="0.85"/>
<rect x="93.5" y="1149.0" width="3" height="11" rx="1" fill="#41D9A4" opacity="0.85"/>
<text x="110" y="1152.0" font-size="12.5" fill="#F4F4F5" font-family="DejaVu Sans, system-ui, sans-serif" font-weight="700" text-anchor="start" letter-spacing="0">T4  (levothyroxine)</text>
<rect x="502" y="1140.0" width="64" height="18" rx="9.0" fill="#11241F" stroke="#1E4B40" stroke-width="1"/>
<text x="534.0" y="1152.42" font-size="9.5" fill="#41D9A4" font-family="DejaVu Sans Mono, monospace" text-anchor="middle" letter-spacing="0" font-weight="700">SEAT</text>
<text x="110" y="1168.0" font-size="10.5" fill="#A1A1AA" font-family="DejaVu Sans, system-ui, sans-serif" text-anchor="start" letter-spacing="0">on-cycle PROTECTION — GH burns through your own thyroid</text>
<rect x="76.0" y="1196.0" width="24" height="5" rx="2.5" fill="#6A6B73"/>
<rect x="79.5" y="1203.0" width="3" height="9" rx="1" fill="#6A6B73" opacity="0.85"/>
<rect x="86.5" y="1203.0" width="3" height="6" rx="1" fill="#6A6B73" opacity="0.85"/>
<rect x="93.5" y="1203.0" width="3" height="11" rx="1" fill="#6A6B73" opacity="0.85"/>
<text x="110" y="1206.0" font-size="12.5" fill="#8C8D95" font-family="DejaVu Sans, system-ui, sans-serif" font-weight="700" text-anchor="start" letter-spacing="0">T3  (liothyronine)</text>
<rect x="502" y="1194.0" width="64" height="18" rx="9.0" fill="#161619" stroke="#26272D" stroke-width="1"/>
<text x="534.0" y="1206.42" font-size="9.5" fill="#6A6B73" font-family="DejaVu Sans Mono, monospace" text-anchor="middle" letter-spacing="0" font-weight="700">→ 4.3</text>
<text x="110" y="1222.0" font-size="10.5" fill="#8C8D95" font-family="DejaVu Sans, system-ui, sans-serif" text-anchor="start" letter-spacing="0">aggressive fat-loss is Part 4.3, not protection</text>
<rect x="74" y="1250" width="504" height="18" rx="4" fill="#2C2413" opacity="0.9"/>
<text x="84" y="1263" font-size="9.8" fill="#E0A33E" font-family="DejaVu Sans Mono, monospace" text-anchor="start" letter-spacing="0" font-weight="700">protection seats T4; T3 is a cutting tool, a different job</text>
<rect x="612" y="1084" width="524" height="200" rx="7" fill="#0E0F12" stroke="#26272D" stroke-width="1.2"/>
<text x="630" y="1111" font-size="15" fill="#F4F4F5" font-family="DejaVu Sans, system-ui, sans-serif" font-weight="700" text-anchor="start" letter-spacing="0">ORGAN / ANTIOXIDANT</text>
<rect x="1071" y="1096" width="53" height="18" rx="9.0" fill="#101117" stroke="#26272D" stroke-width="1"/>
<text x="1097.5" y="1108.24" font-size="9" fill="#8C8D95" font-family="DejaVu Sans Mono, monospace" text-anchor="middle" letter-spacing="0" font-weight="700">ORGAN</text>
<line x1="630" y1="1120" x2="1118" y2="1120" stroke="#26272D" stroke-width="1"/>
<rect x="624.0" y="1142.0" width="24" height="5" rx="2.5" fill="#41D9A4"/>
<rect x="627.5" y="1149.0" width="3" height="9" rx="1" fill="#41D9A4" opacity="0.85"/>
<rect x="634.5" y="1149.0" width="3" height="6" rx="1" fill="#41D9A4" opacity="0.85"/>
<rect x="641.5" y="1149.0" width="3" height="11" rx="1" fill="#41D9A4" opacity="0.85"/>
<text x="658" y="1152.0" font-size="12.5" fill="#F4F4F5" font-family="DejaVu Sans, system-ui, sans-serif" font-weight="700" text-anchor="start" letter-spacing="0">TUDCA</text>
<rect x="1050" y="1140.0" width="64" height="18" rx="9.0" fill="#11241F" stroke="#1E4B40" stroke-width="1"/>
<text x="1082.0" y="1152.42" font-size="9.5" fill="#41D9A4" font-family="DejaVu Sans Mono, monospace" text-anchor="middle" letter-spacing="0" font-weight="700">SEAT</text>
<text x="658" y="1168.0" font-size="10.5" fill="#A1A1AA" font-family="DejaVu Sans, system-ui, sans-serif" text-anchor="start" letter-spacing="0">orals only · 4–8 week blocks</text>
<rect x="624.0" y="1178.0" width="24" height="5" rx="2.5" fill="#41D9A4"/>
<rect x="627.5" y="1185.0" width="3" height="9" rx="1" fill="#41D9A4" opacity="0.85"/>
<rect x="634.5" y="1185.0" width="3" height="6" rx="1" fill="#41D9A4" opacity="0.85"/>
<rect x="641.5" y="1185.0" width="3" height="11" rx="1" fill="#41D9A4" opacity="0.85"/>
<text x="658" y="1188.0" font-size="12.5" fill="#F4F4F5" font-family="DejaVu Sans, system-ui, sans-serif" font-weight="700" text-anchor="start" letter-spacing="0">NAC</text>
<rect x="1050" y="1176.0" width="64" height="18" rx="9.0" fill="#11241F" stroke="#1E4B40" stroke-width="1"/>
<text x="1082.0" y="1188.42" font-size="9.5" fill="#41D9A4" font-family="DejaVu Sans Mono, monospace" text-anchor="middle" letter-spacing="0" font-weight="700">SEAT</text>
<text x="658" y="1204.0" font-size="10.5" fill="#A1A1AA" font-family="DejaVu Sans, system-ui, sans-serif" text-anchor="start" letter-spacing="0">year-round liver + lung support</text>
<rect x="624.0" y="1214.0" width="24" height="5" rx="2.5" fill="#41D9A4"/>
<rect x="627.5" y="1221.0" width="3" height="9" rx="1" fill="#41D9A4" opacity="0.85"/>
<rect x="634.5" y="1221.0" width="3" height="6" rx="1" fill="#41D9A4" opacity="0.85"/>
<rect x="641.5" y="1221.0" width="3" height="11" rx="1" fill="#41D9A4" opacity="0.85"/>
<text x="658" y="1224.0" font-size="12.5" fill="#F4F4F5" font-family="DejaVu Sans, system-ui, sans-serif" font-weight="700" text-anchor="start" letter-spacing="0">GLUTATHIONE inj · ASTRAGALUS</text>
<rect x="1050" y="1212.0" width="64" height="18" rx="9.0" fill="#11241F" stroke="#1E4B40" stroke-width="1"/>
<text x="1082.0" y="1224.42" font-size="9.5" fill="#41D9A4" font-family="DejaVu Sans Mono, monospace" text-anchor="middle" letter-spacing="0" font-weight="700">SEAT</text>
<text x="658" y="1240.0" font-size="10.5" fill="#A1A1AA" font-family="DejaVu Sans, system-ui, sans-serif" text-anchor="start" letter-spacing="0">recovery blocks · renal support</text>
<rect x="622" y="1250" width="504" height="18" rx="4" fill="#11241F" opacity="0.9"/>
<text x="632" y="1263" font-size="9.8" fill="#41D9A4" font-family="DejaVu Sans Mono, monospace" text-anchor="start" letter-spacing="0" font-weight="700">THE ONE PLACE SELECTION IS ADDITIVE — these stack, they don't compete</text>
<rect x="64" y="1302" width="524" height="200" rx="7" fill="#0E0F12" stroke="#26272D" stroke-width="1.2"/>
<text x="82" y="1329" font-size="15" fill="#F4F4F5" font-family="DejaVu Sans, system-ui, sans-serif" font-weight="700" text-anchor="start" letter-spacing="0">PROLACTIN &amp; GYNO</text>
<text x="252.4" y="1329" font-size="11" fill="#A1A1AA" font-family="DejaVu Sans, system-ui, sans-serif" text-anchor="start" letter-spacing="0" font-style="italic">(non-AI)</text>
<rect x="502" y="1314" width="74" height="18" rx="9.0" fill="#101117" stroke="#26272D" stroke-width="1"/>
<text x="539.0" y="1326.24" font-size="9" fill="#8C8D95" font-family="DejaVu Sans Mono, monospace" text-anchor="middle" letter-spacing="0" font-weight="700">HORMONAL</text>
<line x1="82" y1="1338" x2="570" y2="1338" stroke="#26272D" stroke-width="1"/>
<rect x="76.0" y="1360.0" width="24" height="5" rx="2.5" fill="#41D9A4"/>
<rect x="79.5" y="1367.0" width="3" height="9" rx="1" fill="#41D9A4" opacity="0.85"/>
<rect x="86.5" y="1367.0" width="3" height="6" rx="1" fill="#41D9A4" opacity="0.85"/>
<rect x="93.5" y="1367.0" width="3" height="11" rx="1" fill="#41D9A4" opacity="0.85"/>
<text x="110" y="1370.0" font-size="12.5" fill="#F4F4F5" font-family="DejaVu Sans, system-ui, sans-serif" font-weight="700" text-anchor="start" letter-spacing="0">P5P / B6</text>
<rect x="502" y="1358.0" width="64" height="18" rx="9.0" fill="#11241F" stroke="#1E4B40" stroke-width="1"/>
<text x="534.0" y="1370.42" font-size="9.5" fill="#41D9A4" font-family="DejaVu Sans Mono, monospace" text-anchor="middle" letter-spacing="0" font-weight="700">SEAT</text>
<text x="110" y="1386.0" font-size="10.5" fill="#A1A1AA" font-family="DejaVu Sans, system-ui, sans-serif" text-anchor="start" letter-spacing="0">prophylactic on 19-nors</text>
<rect x="76.0" y="1403.3333333333333" width="24" height="5" rx="2.5" fill="#41D9A4"/>
<rect x="79.5" y="1410.3333333333333" width="3" height="9" rx="1" fill="#41D9A4" opacity="0.85"/>
<rect x="86.5" y="1410.3333333333333" width="3" height="6" rx="1" fill="#41D9A4" opacity="0.85"/>
<rect x="93.5" y="1410.3333333333333" width="3" height="11" rx="1" fill="#41D9A4" opacity="0.85"/>
<text x="110" y="1413.3333333333333" font-size="12.5" fill="#F4F4F5" font-family="DejaVu Sans, system-ui, sans-serif" font-weight="700" text-anchor="start" letter-spacing="0">CABERGOLINE</text>
<rect x="502" y="1401.3333333333333" width="64" height="18" rx="9.0" fill="#11241F" stroke="#1E4B40" stroke-width="1"/>
<text x="534.0" y="1413.7533333333333" font-size="9.5" fill="#41D9A4" font-family="DejaVu Sans Mono, monospace" text-anchor="middle" letter-spacing="0" font-weight="700">REACTIVE</text>
<text x="110" y="1429.3333333333333" font-size="10.5" fill="#A1A1AA" font-family="DejaVu Sans, system-ui, sans-serif" text-anchor="start" letter-spacing="0">reactive only · bloodwork-gated</text>
<rect x="76.0" y="1446.6666666666667" width="24" height="5" rx="2.5" fill="#41D9A4"/>
<rect x="79.5" y="1453.6666666666667" width="3" height="9" rx="1" fill="#41D9A4" opacity="0.85"/>
<rect x="86.5" y="1453.6666666666667" width="3" height="6" rx="1" fill="#41D9A4" opacity="0.85"/>
<rect x="93.5" y="1453.6666666666667" width="3" height="11" rx="1" fill="#41D9A4" opacity="0.85"/>
<text x="110" y="1456.6666666666667" font-size="12.5" fill="#F4F4F5" font-family="DejaVu Sans, system-ui, sans-serif" font-weight="700" text-anchor="start" letter-spacing="0">RALOXIFENE</text>
<rect x="502" y="1444.6666666666667" width="64" height="18" rx="9.0" fill="#11241F" stroke="#1E4B40" stroke-width="1"/>
<text x="534.0" y="1457.0866666666668" font-size="9.5" fill="#41D9A4" font-family="DejaVu Sans Mono, monospace" text-anchor="middle" letter-spacing="0" font-weight="700">SEAT</text>
<text x="110" y="1472.6666666666667" font-size="10.5" fill="#A1A1AA" font-family="DejaVu Sans, system-ui, sans-serif" text-anchor="start" letter-spacing="0">for existing gyno (&gt; tamoxifen, a PCT tool)</text>
<rect x="612" y="1302" width="524" height="200" rx="7" fill="#0E0F12" stroke="#26272D" stroke-width="1.2"/>
<text x="630" y="1329" font-size="15" fill="#F4F4F5" font-family="DejaVu Sans, system-ui, sans-serif" font-weight="700" text-anchor="start" letter-spacing="0">HAIR</text>
<text x="681.6" y="1329" font-size="11" fill="#A1A1AA" font-family="DejaVu Sans, system-ui, sans-serif" text-anchor="start" letter-spacing="0" font-style="italic">(5-AR vs topical)</text>
<rect x="1036" y="1314" width="88" height="18" rx="9.0" fill="#101117" stroke="#26272D" stroke-width="1"/>
<text x="1080.0" y="1326.24" font-size="9" fill="#8C8D95" font-family="DejaVu Sans Mono, monospace" text-anchor="middle" letter-spacing="0" font-weight="700">ANDROGENIC</text>
<line x1="630" y1="1338" x2="1118" y2="1338" stroke="#26272D" stroke-width="1"/>
<rect x="624.0" y="1360.0" width="24" height="5" rx="2.5" fill="#41D9A4"/>
<rect x="627.5" y="1367.0" width="3" height="9" rx="1" fill="#41D9A4" opacity="0.85"/>
<rect x="634.5" y="1367.0" width="3" height="6" rx="1" fill="#41D9A4" opacity="0.85"/>
<rect x="641.5" y="1367.0" width="3" height="11" rx="1" fill="#41D9A4" opacity="0.85"/>
<text x="658" y="1370.0" font-size="12.5" fill="#F4F4F5" font-family="DejaVu Sans, system-ui, sans-serif" font-weight="700" text-anchor="start" letter-spacing="0">FINASTERIDE / DUTASTERIDE</text>
<rect x="1050" y="1358.0" width="64" height="18" rx="9.0" fill="#11241F" stroke="#1E4B40" stroke-width="1"/>
<text x="1082.0" y="1370.42" font-size="9.5" fill="#41D9A4" font-family="DejaVu Sans Mono, monospace" text-anchor="middle" letter-spacing="0" font-weight="700">SEAT</text>
<text x="658" y="1386.0" font-size="10.5" fill="#A1A1AA" font-family="DejaVu Sans, system-ui, sans-serif" text-anchor="start" letter-spacing="0">Test-derived loss ONLY · useless vs DHT-derivatives (Mast/Primo/Winny)</text>
<rect x="624.0" y="1414.0" width="24" height="5" rx="2.5" fill="#41D9A4"/>
<rect x="627.5" y="1421.0" width="3" height="9" rx="1" fill="#41D9A4" opacity="0.85"/>
<rect x="634.5" y="1421.0" width="3" height="6" rx="1" fill="#41D9A4" opacity="0.85"/>
<rect x="641.5" y="1421.0" width="3" height="11" rx="1" fill="#41D9A4" opacity="0.85"/>
<text x="658" y="1424.0" font-size="12.5" fill="#F4F4F5" font-family="DejaVu Sans, system-ui, sans-serif" font-weight="700" text-anchor="start" letter-spacing="0">RU58841 / pyrilutamide</text>
<rect x="1050" y="1412.0" width="64" height="18" rx="9.0" fill="#11241F" stroke="#1E4B40" stroke-width="1"/>
<text x="1082.0" y="1424.42" font-size="9.5" fill="#41D9A4" font-family="DejaVu Sans Mono, monospace" text-anchor="middle" letter-spacing="0" font-weight="700">TOPICAL</text>
<text x="658" y="1440.0" font-size="10.5" fill="#A1A1AA" font-family="DejaVu Sans, system-ui, sans-serif" text-anchor="start" letter-spacing="0">topical route for DHT-derivatives · research chem (transparency, not endorsement)</text>
<rect x="622" y="1468" width="504" height="18" rx="4" fill="#2C2413" opacity="0.9"/>
<text x="632" y="1481" font-size="9.8" fill="#E0A33E" font-family="DejaVu Sans Mono, monospace" text-anchor="start" letter-spacing="0" font-weight="700">ORAL MINOXIDIL rewrites your BP stack → ARB + nebivolol become non-negotiable</text>
<rect x="64" y="1522" width="1072" height="92" rx="8" fill="#141519" stroke="#33353D" stroke-width="1.4"/>
<text x="86" y="1556" font-size="20" fill="#F4F4F5" font-family="DejaVu Sans, system-ui, sans-serif" font-weight="700" text-anchor="start" letter-spacing="0">DEFEND THE SYSTEM, NOT THE DRUG</text>
<text x="86" y="1580" font-size="11.5" fill="#A1A1AA" font-family="DejaVu Sans, system-ui, sans-serif" text-anchor="start" letter-spacing="0">In a stack, risks MULTIPLY. Protect each system against the COMBINED load: fewer, multi-tasking,</text>
<text x="86" y="1598" font-size="11.5" fill="#A1A1AA" font-family="DejaVu Sans, system-ui, sans-serif" text-anchor="start" letter-spacing="0">well-chosen parts. The number is still the boss: if BP/HR keep climbing, lower the DOSE, don't add a part.</text>
<text x="836" y="1542" font-size="10" fill="#A1A1AA" font-family="DejaVu Sans Mono, monospace" text-anchor="start" letter-spacing="0" font-weight="700">PARTS COUNT — keep it low</text>
<rect x="836" y="1552" width="18" height="18" rx="4" fill="#41D9A4"/>
<rect x="862" y="1552" width="18" height="18" rx="4" fill="#41D9A4"/>
<rect x="888" y="1552" width="18" height="18" rx="4" fill="#41D9A4"/>
<rect x="914" y="1552" width="18" height="18" rx="4" fill="#41D9A4"/>
<rect x="940" y="1552" width="18" height="18" rx="4" fill="#41D9A4"/>
<rect x="966" y="1552" width="18" height="18" rx="4" fill="#41D9A4"/>
<rect x="992" y="1552" width="18" height="18" rx="4" fill="#41D9A4"/>
<rect x="1018" y="1552" width="18" height="18" rx="4" fill="#E0A33E"/>
<rect x="1044" y="1552" width="18" height="18" rx="4" fill="#1A1B1F" stroke="#26272D" stroke-width="1"/>
<rect x="1070" y="1552" width="18" height="18" rx="4" fill="#1A1B1F" stroke="#26272D" stroke-width="1"/>
<circle cx="844" cy="1594" r="5" fill="#41D9A4"/>
<line x1="849" y1="1594" x2="902" y2="1582" stroke="#41D9A4" stroke-width="1" opacity="0.45" stroke-dasharray="2 3"/>
<text x="908" y="1585.5" font-size="9" fill="#8C8D95" font-family="DejaVu Sans Mono, monospace" text-anchor="start" letter-spacing="0">LIPIDS</text>
<line x1="849" y1="1594" x2="902" y2="1594" stroke="#41D9A4" stroke-width="1" opacity="0.45" stroke-dasharray="2 3"/>
<text x="908" y="1597.5" font-size="9" fill="#8C8D95" font-family="DejaVu Sans Mono, monospace" text-anchor="start" letter-spacing="0">ENDOTHELIUM</text>
<line x1="849" y1="1594" x2="902" y2="1606" stroke="#41D9A4" stroke-width="1" opacity="0.45" stroke-dasharray="2 3"/>
<text x="908" y="1609.5" font-size="9" fill="#8C8D95" font-family="DejaVu Sans Mono, monospace" text-anchor="start" letter-spacing="0">BP</text>
<text x="986" y="1598" font-size="9.5" fill="#8C8D95" font-family="DejaVu Sans, system-ui, sans-serif" text-anchor="start" letter-spacing="0" font-style="italic">one seated part → several jobs</text>
<rect x="764" y="1632" width="372" height="30" rx="15" fill="#0C1A16" stroke="#1E4B40" stroke-width="1"/>
<text x="780" y="1651" font-size="11.5" fill="#41D9A4" font-family="DejaVu Sans Mono, monospace" text-anchor="start" letter-spacing="0" font-weight="700">NEXT → 4.3  The Bodybuilding Realm</text>
<text x="64" y="1651" font-size="11" fill="#8C8D95" font-family="DejaVu Sans, system-ui, sans-serif" text-anchor="start" letter-spacing="0" font-style="italic">this tray cabinet is the PROTECTIVE toolbox</text>
<text x="64" y="1633" font-size="10" fill="#E5484D" font-family="DejaVu Sans Mono, monospace" text-anchor="start" letter-spacing="0" font-weight="700">ONE RED OBJECT:</text>
<text x="182" y="1633" font-size="10" fill="#8C8D95" font-family="DejaVu Sans Mono, monospace" text-anchor="start" letter-spacing="0">spironolactone: picking wrong inside a class can sabotage you.</text>
<text x="600.0" y="1682" font-size="9.5" fill="#6A6B73" font-family="DejaVu Sans Mono, monospace" text-anchor="middle" letter-spacing="0">Almost every agent here is a prescription medicine. Doses are illustrative reference points, not a protocol. Selection &amp; dosing is a physician's job, from YOUR bloodwork.</text>
</svg>