<svg viewBox="0 0 1500 1200" xmlns="http://www.w3.org/2000/svg" font-family="Inter, system-ui, 'DejaVu Sans', sans-serif">
<defs>
<linearGradient id="bg" x1="0" y1="0" x2="0" y2="1"><stop offset="0" stop-color="#06090D"/><stop offset="0.5" stop-color="#0B0F14"/><stop offset="1" stop-color="#0E1419"/></linearGradient>
<linearGradient id="heat" x1="0" y1="0" x2="1" y2="0"><stop offset="0" stop-color="#2DD4BF"/><stop offset="0.34" stop-color="#37A99B"/><stop offset="0.62" stop-color="#6E8B9E"/><stop offset="0.86" stop-color="#3B4552"/><stop offset="1" stop-color="#2A323C"/></linearGradient>
<radialGradient id="gCy" cx="0.5" cy="0.5" r="0.6"><stop offset="0" stop-color="#2DD4BF" stop-opacity="0.16"/><stop offset="1" stop-color="#2DD4BF" stop-opacity="0"/></radialGradient>
<radialGradient id="gCyS" cx="0.5" cy="0.5" r="0.6"><stop offset="0" stop-color="#2DD4BF" stop-opacity="0.1"/><stop offset="1" stop-color="#2DD4BF" stop-opacity="0"/></radialGradient>
<radialGradient id="gAmb" cx="0.5" cy="0.5" r="0.6"><stop offset="0" stop-color="#E8A23D" stop-opacity="0.13"/><stop offset="1" stop-color="#E8A23D" stop-opacity="0"/></radialGradient>
<radialGradient id="gRed" cx="0.5" cy="0.5" r="0.6"><stop offset="0" stop-color="#FF5C5C" stop-opacity="0.2"/><stop offset="1" stop-color="#FF5C5C" stop-opacity="0"/></radialGradient>
<radialGradient id="gRes" cx="0.5" cy="0.5" r="0.6"><stop offset="0" stop-color="#6E8B9E" stop-opacity="0.1"/><stop offset="1" stop-color="#6E8B9E" stop-opacity="0"/></radialGradient>
<pattern id="grid" width="40" height="40" patternUnits="userSpaceOnUse"><path d="M40 0H0V40" fill="none" stroke="#161D25" stroke-width="0.6"/></pattern>
<pattern id="fence" width="9" height="9" patternUnits="userSpaceOnUse" patternTransform="rotate(45)"><line x1="0" y1="0" x2="0" y2="9" stroke="#2C3540" stroke-width="1"/></pattern>
<marker id="aCy" markerWidth="9" markerHeight="9" refX="6.5" refY="3" orient="auto"><path d="M0 0L6.5 3L0 6Z" fill="#2DD4BF"/></marker>
<marker id="aAmb" markerWidth="9" markerHeight="9" refX="6.5" refY="3" orient="auto"><path d="M0 0L6.5 3L0 6Z" fill="#E8A23D"/></marker>
<marker id="aDim" markerWidth="9" markerHeight="9" refX="6.5" refY="3" orient="auto"><path d="M0 0L6.5 3L0 6Z" fill="#3B4552"/></marker>
<marker id="aRed" markerWidth="9" markerHeight="9" refX="6.5" refY="3" orient="auto"><path d="M0 0L6.5 3L0 6Z" fill="#FF5C5C"/></marker>
<marker id="aRes" markerWidth="9" markerHeight="9" refX="6.5" refY="3" orient="auto"><path d="M0 0L6.5 3L0 6Z" fill="#6E8B9E"/></marker>
</defs>
<rect width="1500" height="1200" fill="url(#bg)"/>
<rect width="1500" height="1200" fill="url(#grid)"/>
<text x="70" y="46" font-size="13" fill="#5A6470" font-family="JetBrains Mono, 'DejaVu Sans Mono', monospace" letter-spacing="2.6">PRODUCTIVE   ·   PRODUCTIVITY ENHANCEMENT   ·   PART 4.0   ·   PARA</text>
<text x="68" y="100" font-size="44" fill="#E6E8EE" font-weight="700" letter-spacing="0.4">FILE BY HEAT, </text>
<text x="446" y="100" font-size="44" font-weight="700" letter-spacing="0.4" fill="#2DD4BF">NOT BY TOPIC.</text>
<text x="70" y="134" font-size="12.5" fill="#5FCBBC" font-family="JetBrains Mono, 'DejaVu Sans Mono', monospace" letter-spacing="0.4">Organise by when you&#x27;ll act — not what it&#x27;s about. The live work glows up front; the dead weight cools into the dark on its own.</text>
<text x="1432" y="42" font-size="11" fill="#5A6470" font-family="JetBrains Mono, 'DejaVu Sans Mono', monospace" letter-spacing="1.6" text-anchor="end">HEAT-GRADED STORAGE BUS</text>
<text x="1432" y="60" font-size="11" fill="#5A6470" font-family="JetBrains Mono, 'DejaVu Sans Mono', monospace" letter-spacing="1.6" text-anchor="end">ACTIONABILITY GRADIENT · KNOWLEDGE LAYER</text>
<line x1="70" y1="150" x2="1432" y2="150" stroke="#222A33" stroke-width="1"/>
<rect x="95" y="194" width="1075" height="36" fill="url(#gCyS)"/>
<line x1="150" y1="212" x2="1165" y2="212" stroke="#2DD4BF" stroke-width="3" opacity="0.92"/>
<line x1="180" y1="212" x2="180" y2="221" stroke="#2DD4BF" stroke-width="1" opacity="0.5"/>
<line x1="226" y1="212" x2="226" y2="221" stroke="#2DD4BF" stroke-width="1" opacity="0.5"/>
<line x1="272" y1="212" x2="272" y2="221" stroke="#2DD4BF" stroke-width="1" opacity="0.5"/>
<line x1="318" y1="212" x2="318" y2="221" stroke="#2DD4BF" stroke-width="1" opacity="0.5"/>
<line x1="364" y1="212" x2="364" y2="221" stroke="#2DD4BF" stroke-width="1" opacity="0.5"/>
<line x1="410" y1="212" x2="410" y2="221" stroke="#2DD4BF" stroke-width="1" opacity="0.5"/>
<line x1="456" y1="212" x2="456" y2="221" stroke="#2DD4BF" stroke-width="1" opacity="0.5"/>
<line x1="502" y1="212" x2="502" y2="221" stroke="#2DD4BF" stroke-width="1" opacity="0.5"/>
<line x1="548" y1="212" x2="548" y2="221" stroke="#2DD4BF" stroke-width="1" opacity="0.5"/>
<line x1="594" y1="212" x2="594" y2="221" stroke="#2DD4BF" stroke-width="1" opacity="0.5"/>
<line x1="640" y1="212" x2="640" y2="221" stroke="#2DD4BF" stroke-width="1" opacity="0.5"/>
<line x1="686" y1="212" x2="686" y2="221" stroke="#2DD4BF" stroke-width="1" opacity="0.5"/>
<line x1="732" y1="212" x2="732" y2="221" stroke="#2DD4BF" stroke-width="1" opacity="0.5"/>
<line x1="778" y1="212" x2="778" y2="221" stroke="#2DD4BF" stroke-width="1" opacity="0.5"/>
<line x1="824" y1="212" x2="824" y2="221" stroke="#2DD4BF" stroke-width="1" opacity="0.5"/>
<line x1="870" y1="212" x2="870" y2="221" stroke="#2DD4BF" stroke-width="1" opacity="0.5"/>
<line x1="916" y1="212" x2="916" y2="221" stroke="#2DD4BF" stroke-width="1" opacity="0.5"/>
<line x1="962" y1="212" x2="962" y2="221" stroke="#2DD4BF" stroke-width="1" opacity="0.5"/>
<line x1="1008" y1="212" x2="1008" y2="221" stroke="#2DD4BF" stroke-width="1" opacity="0.5"/>
<line x1="1054" y1="212" x2="1054" y2="221" stroke="#2DD4BF" stroke-width="1" opacity="0.5"/>
<line x1="1100" y1="212" x2="1100" y2="221" stroke="#2DD4BF" stroke-width="1" opacity="0.5"/>
<line x1="1146" y1="212" x2="1146" y2="221" stroke="#2DD4BF" stroke-width="1" opacity="0.5"/>
<text x="96" y="190" font-size="12" fill="#2DD4BF" font-family="JetBrains Mono, 'DejaVu Sans Mono', monospace" font-weight="700" letter-spacing="1.4">CAPTURE</text>
<text x="96" y="234" font-size="10.5" fill="#8A93A3" font-family="JetBrains Mono, 'DejaVu Sans Mono', monospace" letter-spacing="0.6">get it onto the bus first · THE FUNDAMENTAL</text>
<rect x="706" y="166" width="150" height="30" rx="5" fill="none" stroke="#E8A23D" stroke-width="1.1" opacity="0.78" stroke-dasharray="4 3"/>
<text x="713" y="182" font-size="10.5" fill="#E8A23D" font-family="JetBrains Mono, 'DejaVu Sans Mono', monospace" font-weight="700" letter-spacing="0.5">×AI FILING</text>
<text x="713" y="195" font-size="8.6" fill="#8A93A3" font-family="JetBrains Mono, 'DejaVu Sans Mono', monospace" letter-spacing="0.3">drafts bucket + project/area</text>
<line x1="781" y1="196" x2="781" y2="212" stroke="#E8A23D" stroke-width="1.1" stroke-dasharray="3 3" opacity="0.7"/>
<circle cx="1010" cy="212" r="7" fill="none" stroke="#2DD4BF" stroke-width="2"/>
<circle cx="1010" cy="212" r="3" fill="#2DD4BF"/>
<path d="M988 196 Q1010 182 1032 196" stroke="#2DD4BF" stroke-width="1.2" fill="none" opacity="0.7"/>
<path d="M978 190 Q1010 168 1042 190" stroke="#2DD4BF" stroke-width="1.0" fill="none" opacity="0.4"/>
<text x="1026" y="192" font-size="11" fill="#2DD4BF" font-family="JetBrains Mono, 'DejaVu Sans Mono', monospace" font-weight="700" letter-spacing="0.6">×AI RETRIEVAL (RAG)</text>
<text x="1026" y="206" font-size="9.2" fill="#8A93A3" font-family="JetBrains Mono, 'DejaVu Sans Mono', monospace" letter-spacing="0.3">finds by MEANING — ignores which zone it sits in</text>
<line x1="1010" y1="220" x2="285" y2="470" stroke="#2DD4BF" stroke-width="0.9" stroke-dasharray="2 6" opacity="0.16"/>
<line x1="1010" y1="220" x2="330" y2="690" stroke="#2DD4BF" stroke-width="0.9" stroke-dasharray="2 6" opacity="0.16"/>
<line x1="1010" y1="220" x2="775" y2="470" stroke="#2DD4BF" stroke-width="0.9" stroke-dasharray="2 6" opacity="0.16"/>
<line x1="1010" y1="220" x2="1090" y2="470" stroke="#2DD4BF" stroke-width="0.9" stroke-dasharray="2 6" opacity="0.16"/>
<rect x="60" y="282" width="1115" height="20" fill="url(#gCyS)"/>
<rect x="84" y="286" width="1086" height="12" rx="3" fill="url(#heat)"/>
<line x1="110" y1="300" x2="110" y2="305" stroke="#5A6470" stroke-width="0.8" opacity="0.5"/>
<line x1="170" y1="300" x2="170" y2="305" stroke="#5A6470" stroke-width="0.8" opacity="0.5"/>
<line x1="230" y1="300" x2="230" y2="305" stroke="#5A6470" stroke-width="0.8" opacity="0.5"/>
<line x1="290" y1="300" x2="290" y2="305" stroke="#5A6470" stroke-width="0.8" opacity="0.5"/>
<line x1="350" y1="300" x2="350" y2="305" stroke="#5A6470" stroke-width="0.8" opacity="0.5"/>
<line x1="410" y1="300" x2="410" y2="305" stroke="#5A6470" stroke-width="0.8" opacity="0.5"/>
<line x1="470" y1="300" x2="470" y2="305" stroke="#5A6470" stroke-width="0.8" opacity="0.5"/>
<line x1="530" y1="300" x2="530" y2="305" stroke="#5A6470" stroke-width="0.8" opacity="0.5"/>
<line x1="590" y1="300" x2="590" y2="305" stroke="#5A6470" stroke-width="0.8" opacity="0.5"/>
<line x1="650" y1="300" x2="650" y2="305" stroke="#5A6470" stroke-width="0.8" opacity="0.5"/>
<line x1="710" y1="300" x2="710" y2="305" stroke="#5A6470" stroke-width="0.8" opacity="0.5"/>
<line x1="770" y1="300" x2="770" y2="305" stroke="#5A6470" stroke-width="0.8" opacity="0.5"/>
<line x1="830" y1="300" x2="830" y2="305" stroke="#5A6470" stroke-width="0.8" opacity="0.5"/>
<line x1="890" y1="300" x2="890" y2="305" stroke="#5A6470" stroke-width="0.8" opacity="0.5"/>
<line x1="950" y1="300" x2="950" y2="305" stroke="#5A6470" stroke-width="0.8" opacity="0.5"/>
<line x1="1010" y1="300" x2="1010" y2="305" stroke="#5A6470" stroke-width="0.8" opacity="0.5"/>
<line x1="1070" y1="300" x2="1070" y2="305" stroke="#5A6470" stroke-width="0.8" opacity="0.5"/>
<line x1="1130" y1="300" x2="1130" y2="305" stroke="#5A6470" stroke-width="0.8" opacity="0.5"/>
<text x="96" y="278" font-size="10" fill="#2DD4BF" font-family="JetBrains Mono, 'DejaVu Sans Mono', monospace" font-weight="700" letter-spacing="1.0">HOT · ACT SOON</text>
<text x="1166" y="278" font-size="10" fill="#3B4552" font-family="JetBrains Mono, 'DejaVu Sans Mono', monospace" font-weight="700" letter-spacing="1.0" text-anchor="end">COLD · LATER / NEVER</text>
<rect x="40" y="300" width="70" height="420" fill="url(#gCy)"/>
<rect x="64" y="300" width="18" height="415" rx="4" fill="#2DD4BF" opacity="0.92"/>
<path d="M73 300 L73 292" stroke="#2DD4BF" stroke-width="3" fill="none"/>
<text x="44" y="640" font-family="JetBrains Mono, 'DejaVu Sans Mono', monospace" font-size="11" letter-spacing="1.4" fill="#5FCBBC" transform="rotate(-90 44 640)" font-weight="700">← LIVE WORK RAIL · from 3.0 EXECUTE · the heat source</text>
<rect x="92" y="316" width="384" height="312" fill="url(#gCy)"/>
<rect x="98" y="322" width="372" height="300" rx="10" fill="#2DD4BF" stroke="#2DD4BF" stroke-width="2" opacity="1.0"/>
<rect x="98" y="322" width="372" height="300" rx="10" fill="#2DD4BF" opacity="0.06"/>
<circle cx="98" cy="472" r="6" fill="#2DD4BF"/>
<line x1="82" y1="472" x2="98" y2="472" stroke="#2DD4BF" stroke-width="3"/>
<line x1="122" y1="322" x2="122" y2="298" stroke="#2DD4BF" stroke-width="1" opacity="0.6"/>
<circle cx="122" cy="322" r="2.4" fill="#2DD4BF"/>
<line x1="152" y1="322" x2="152" y2="298" stroke="#2DD4BF" stroke-width="1" opacity="0.6"/>
<circle cx="152" cy="322" r="2.4" fill="#2DD4BF"/>
<line x1="182" y1="322" x2="182" y2="298" stroke="#2DD4BF" stroke-width="1" opacity="0.6"/>
<circle cx="182" cy="322" r="2.4" fill="#2DD4BF"/>
<line x1="212" y1="322" x2="212" y2="298" stroke="#2DD4BF" stroke-width="1" opacity="0.6"/>
<circle cx="212" cy="322" r="2.4" fill="#2DD4BF"/>
<line x1="242" y1="322" x2="242" y2="298" stroke="#2DD4BF" stroke-width="1" opacity="0.6"/>
<circle cx="242" cy="322" r="2.4" fill="#2DD4BF"/>
<line x1="272" y1="322" x2="272" y2="298" stroke="#2DD4BF" stroke-width="1" opacity="0.6"/>
<circle cx="272" cy="322" r="2.4" fill="#2DD4BF"/>
<line x1="302" y1="322" x2="302" y2="298" stroke="#2DD4BF" stroke-width="1" opacity="0.6"/>
<circle cx="302" cy="322" r="2.4" fill="#2DD4BF"/>
<line x1="332" y1="322" x2="332" y2="298" stroke="#2DD4BF" stroke-width="1" opacity="0.6"/>
<circle cx="332" cy="322" r="2.4" fill="#2DD4BF"/>
<line x1="362" y1="322" x2="362" y2="298" stroke="#2DD4BF" stroke-width="1" opacity="0.6"/>
<circle cx="362" cy="322" r="2.4" fill="#2DD4BF"/>
<line x1="392" y1="322" x2="392" y2="298" stroke="#2DD4BF" stroke-width="1" opacity="0.6"/>
<circle cx="392" cy="322" r="2.4" fill="#2DD4BF"/>
<line x1="422" y1="322" x2="422" y2="298" stroke="#2DD4BF" stroke-width="1" opacity="0.6"/>
<circle cx="422" cy="322" r="2.4" fill="#2DD4BF"/>
<line x1="452" y1="322" x2="452" y2="298" stroke="#2DD4BF" stroke-width="1" opacity="0.6"/>
<circle cx="452" cy="322" r="2.4" fill="#2DD4BF"/>
<text x="114" y="356" font-size="23" fill="#04130F" font-weight="700" letter-spacing="0.4">PROJECTS</text>
<text x="114" y="374" font-size="10.5" fill="#063A33" font-family="JetBrains Mono, 'DejaVu Sans Mono', monospace" font-weight="700" letter-spacing="0.6">active · deadlined · ENDS</text>
<text x="458" y="344" font-size="9" fill="#06302A" font-family="JetBrains Mono, 'DejaVu Sans Mono', monospace" font-weight="700" letter-spacing="0.5" text-anchor="end">BRIGHTEST · TOUCHED DAILY</text>
<rect x="116" y="396" width="166" height="36" rx="5" fill="#0B0F14" stroke="#2DD4BF" stroke-width="1.2" opacity="0.95"/>
<text x="125" y="412" font-size="10.5" fill="#E6E8EE" font-weight="600">Q3 LANDING PAGE</text>
<text x="125" y="425" font-size="8.4" fill="#5FCBBC" font-family="JetBrains Mono, 'DejaVu Sans Mono', monospace" letter-spacing="0.3">DUE FRI</text>
<rect x="296" y="396" width="166" height="36" rx="5" fill="#0B0F14" stroke="#2DD4BF" stroke-width="1.2" opacity="0.95"/>
<text x="305" y="412" font-size="10.5" fill="#E6E8EE" font-weight="600">CLIENT PITCH</text>
<text x="305" y="425" font-size="8.4" fill="#5FCBBC" font-family="JetBrains Mono, 'DejaVu Sans Mono', monospace" letter-spacing="0.3">Tue</text>
<rect x="116" y="442" width="166" height="36" rx="5" fill="#0B0F14" stroke="#2DD4BF" stroke-width="1.2" opacity="0.95"/>
<text x="125" y="458" font-size="10.5" fill="#E6E8EE" font-weight="600">TAX FILING</text>
<text x="125" y="471" font-size="8.4" fill="#5FCBBC" font-family="JetBrains Mono, 'DejaVu Sans Mono', monospace" letter-spacing="0.3">Apr</text>
<rect x="296" y="442" width="166" height="36" rx="5" fill="#0B0F14" stroke="#2DD4BF" stroke-width="1.2" opacity="0.95"/>
<text x="305" y="458" font-size="10.5" fill="#E6E8EE" font-weight="600">APP v2 LAUNCH</text>
<text x="305" y="471" font-size="8.4" fill="#5FCBBC" font-family="JetBrains Mono, 'DejaVu Sans Mono', monospace" letter-spacing="0.3">wk 3</text>
<rect x="104" y="480" width="210" height="60" fill="url(#gRed)"/>
<rect x="116" y="492" width="180" height="40" rx="5" fill="#160A0C" stroke="#FF5C5C" stroke-width="1.6"/>
<text x="126" y="510" font-size="10.5" fill="#FF5C5C" font-weight="700">DONE ✓  (never swept)</text>
<text x="126" y="523" font-size="8.4" fill="#C98A8A" font-family="JetBrains Mono, 'DejaVu Sans Mono', monospace" letter-spacing="0.3">still drawing current</text>
<path d="M302 512 q10 -6.0 15.0 0" fill="none" stroke="#FF5C5C" stroke-width="1.2" opacity="0.38"/>
<path d="M302 512 q17 -10.2 25.5 0" fill="none" stroke="#FF5C5C" stroke-width="1.2" opacity="0.30"/>
<path d="M302 512 q24 -14.399999999999999 36.0 0" fill="none" stroke="#FF5C5C" stroke-width="1.2" opacity="0.21"/>
<text x="212" y="549" font-size="10" fill="#FF5C5C" font-family="JetBrains Mono, 'DejaVu Sans Mono', monospace" font-weight="700" letter-spacing="2">NOISE</text>
<text x="114" y="612" font-size="9.4" fill="#9fb0ad" font-family="JetBrains Mono, 'DejaVu Sans Mono', monospace" letter-spacing="0.2">FINISHED ≠ FILED · ARCHIVE AGGRESSIVELY (the [1.1] enemy)</text>
<text x="458" y="360" font-size="8.4" fill="#06302A" font-family="JetBrains Mono, 'DejaVu Sans Mono', monospace" font-weight="700" letter-spacing="0.2" text-anchor="end">= workflow project list · 2 views</text>
<line x1="104" y1="648" x2="548" y2="648" stroke="#2DD4BF" stroke-width="3" opacity="0.5"/>
<rect x="98" y="638" width="460" height="22" fill="url(#gCyS)"/>
<text x="100" y="636" font-size="12" fill="#37A99B" font-family="JetBrains Mono, 'DejaVu Sans Mono', monospace" font-weight="700" letter-spacing="1.2">AREAS</text>
<text x="176" y="636" font-size="9.4" fill="#8A93A3" font-family="JetBrains Mono, 'DejaVu Sans Mono', monospace" letter-spacing="0.3">ongoing · no end · ALWAYS ON · low standby current</text>
<circle cx="128" cy="648" r="5" fill="none" stroke="#37A99B" stroke-width="1.4"/>
<text x="138" y="652" font-size="8.6" fill="#37A99B" font-family="JetBrains Mono, 'DejaVu Sans Mono', monospace" letter-spacing="0.4">HEALTH</text>
<circle cx="248" cy="648" r="5" fill="none" stroke="#37A99B" stroke-width="1.4"/>
<text x="258" y="652" font-size="8.6" fill="#37A99B" font-family="JetBrains Mono, 'DejaVu Sans Mono', monospace" letter-spacing="0.4">FINANCES</text>
<circle cx="368" cy="648" r="5" fill="none" stroke="#37A99B" stroke-width="1.4"/>
<text x="378" y="652" font-size="8.6" fill="#37A99B" font-family="JetBrains Mono, 'DejaVu Sans Mono', monospace" letter-spacing="0.4">TEAM</text>
<circle cx="488" cy="648" r="5" fill="none" stroke="#37A99B" stroke-width="1.4"/>
<text x="498" y="652" font-size="8.6" fill="#37A99B" font-family="JetBrains Mono, 'DejaVu Sans Mono', monospace" letter-spacing="0.4">HOME</text>
<path d="M128 642 C128 608 136 628 136 620" stroke="#2DD4BF" stroke-width="1.3" fill="none" opacity="0.7" marker-end="url(#aCy)"/>
<path d="M248 642 C248 608 256 628 256 620" stroke="#2DD4BF" stroke-width="1.3" fill="none" opacity="0.7" marker-end="url(#aCy)"/>
<path d="M368 642 C368 608 376 628 376 620" stroke="#2DD4BF" stroke-width="1.3" fill="none" opacity="0.7" marker-end="url(#aCy)"/>
<rect x="142" y="570" width="150" height="30" rx="5" fill="#0B0F14" stroke="#2DD4BF" stroke-width="1.1" opacity="0.85"/>
<text x="150" y="588" font-size="9" fill="#5FCBBC" font-family="JetBrains Mono, 'DejaVu Sans Mono', monospace" letter-spacing="0.2">→ book the blood panel</text>
<text x="248" y="678" font-size="9.2" fill="#37A99B" font-family="JetBrains Mono, 'DejaVu Sans Mono', monospace" font-weight="700" letter-spacing="0.6" text-anchor="middle">AREAS SPIN OFF PROJECTS, CONTINUOUSLY</text>
<rect x="556" y="318" width="416" height="354" fill="url(#gRes)"/>
<rect x="560" y="322" width="408" height="346" rx="10" fill="#6E8B9E" stroke="#6E8B9E" stroke-width="1.4" opacity="0.1"/>
<rect x="560" y="322" width="408" height="346" rx="10" fill="none" stroke="#6E8B9E" stroke-width="1.6" opacity="0.8"/>
<line x1="600" y1="322" x2="600" y2="298" stroke="#6E8B9E" stroke-width="1" opacity="0.4"/>
<line x1="690" y1="322" x2="690" y2="298" stroke="#6E8B9E" stroke-width="1" opacity="0.4"/>
<line x1="780" y1="322" x2="780" y2="298" stroke="#6E8B9E" stroke-width="1" opacity="0.4"/>
<line x1="870" y1="322" x2="870" y2="298" stroke="#6E8B9E" stroke-width="1" opacity="0.4"/>
<text x="576" y="356" font-size="22" fill="#E6E8EE" font-weight="700" letter-spacing="0.4" opacity="0.9">RESOURCES</text>
<text x="576" y="374" font-size="10" fill="#6E8B9E" font-family="JetBrains Mono, 'DejaVu Sans Mono', monospace" font-weight="700" letter-spacing="0.4">future reference · DEFAULT HERE · the big cold bin</text>
<text x="956" y="344" font-size="9" fill="#E8A23D" font-family="JetBrains Mono, 'DejaVu Sans Mono', monospace" font-weight="700" letter-spacing="0.4" text-anchor="end" opacity="0.85">LARGEST BIN — ON PURPOSE</text>
<rect x="578" y="400" width="118" height="34" rx="4" fill="none" stroke="#6E8B9E" stroke-width="1" opacity="0.42"/>
<text x="586" y="420" font-size="8.2" fill="#8FA6B4" font-family="JetBrains Mono, 'DejaVu Sans Mono', monospace" letter-spacing="0.2" opacity="0.7">negotiation guide</text>
<rect x="708" y="400" width="118" height="34" rx="4" fill="none" stroke="#6E8B9E" stroke-width="1" opacity="0.42"/>
<text x="716" y="420" font-size="8.2" fill="#8FA6B4" font-family="JetBrains Mono, 'DejaVu Sans Mono', monospace" letter-spacing="0.2" opacity="0.7">sourdough recipe</text>
<rect x="838" y="400" width="118" height="34" rx="4" fill="none" stroke="#6E8B9E" stroke-width="1" opacity="0.42"/>
<text x="846" y="420" font-size="8.2" fill="#8FA6B4" font-family="JetBrains Mono, 'DejaVu Sans Mono', monospace" letter-spacing="0.2" opacity="0.7">API docs</text>
<rect x="578" y="448" width="118" height="34" rx="4" fill="none" stroke="#6E8B9E" stroke-width="1" opacity="0.42"/>
<text x="586" y="468" font-size="8.2" fill="#8FA6B4" font-family="JetBrains Mono, 'DejaVu Sans Mono', monospace" letter-spacing="0.2" opacity="0.7">design refs</text>
<rect x="708" y="448" width="118" height="34" rx="4" fill="none" stroke="#6E8B9E" stroke-width="1" opacity="0.42"/>
<text x="716" y="468" font-size="8.2" fill="#8FA6B4" font-family="JetBrains Mono, 'DejaVu Sans Mono', monospace" letter-spacing="0.2" opacity="0.7">book notes</text>
<rect x="838" y="448" width="118" height="34" rx="4" fill="none" stroke="#6E8B9E" stroke-width="1" opacity="0.42"/>
<text x="846" y="468" font-size="8.2" fill="#8FA6B4" font-family="JetBrains Mono, 'DejaVu Sans Mono', monospace" letter-spacing="0.2" opacity="0.7">swipe file</text>
<rect x="578" y="496" width="118" height="34" rx="4" fill="none" stroke="#6E8B9E" stroke-width="1" opacity="0.42"/>
<text x="586" y="516" font-size="8.2" fill="#8FA6B4" font-family="JetBrains Mono, 'DejaVu Sans Mono', monospace" letter-spacing="0.2" opacity="0.7">tax rules 2026</text>
<rect x="708" y="496" width="118" height="34" rx="4" fill="none" stroke="#6E8B9E" stroke-width="1" opacity="0.42"/>
<text x="716" y="516" font-size="8.2" fill="#8FA6B4" font-family="JetBrains Mono, 'DejaVu Sans Mono', monospace" letter-spacing="0.2" opacity="0.7">competitor teardown</text>
<rect x="838" y="496" width="118" height="34" rx="4" fill="none" stroke="#6E8B9E" stroke-width="1" opacity="0.42"/>
<text x="846" y="516" font-size="8.2" fill="#8FA6B4" font-family="JetBrains Mono, 'DejaVu Sans Mono', monospace" letter-spacing="0.2" opacity="0.7">fonts to try</text>
<rect x="578" y="544" width="118" height="34" rx="4" fill="none" stroke="#6E8B9E" stroke-width="1" opacity="0.42"/>
<text x="586" y="564" font-size="8.2" fill="#8FA6B4" font-family="JetBrains Mono, 'DejaVu Sans Mono', monospace" letter-spacing="0.2" opacity="0.7">SQL snippets</text>
<rect x="708" y="544" width="118" height="34" rx="4" fill="none" stroke="#6E8B9E" stroke-width="1" opacity="0.42"/>
<text x="716" y="564" font-size="8.2" fill="#8FA6B4" font-family="JetBrains Mono, 'DejaVu Sans Mono', monospace" letter-spacing="0.2" opacity="0.7">travel hacks</text>
<rect x="838" y="544" width="118" height="34" rx="4" fill="none" stroke="#6E8B9E" stroke-width="1" opacity="0.42"/>
<text x="846" y="564" font-size="8.2" fill="#8FA6B4" font-family="JetBrains Mono, 'DejaVu Sans Mono', monospace" letter-spacing="0.2" opacity="0.7">vendor list</text>
<circle cx="584" cy="414" r="4" fill="#2DD4BF"/>
<circle cx="618" cy="414" r="4" fill="#2DD4BF"/>
<line x1="584" y1="414" x2="614" y2="405" stroke="#2DD4BF" stroke-width="1.6"/>
<rect x="578" y="400" width="118" height="34" rx="4" fill="#0B0F14" stroke="#2DD4BF" stroke-width="1.4"/>
<text x="586" y="420" font-size="8.4" fill="#5FCBBC" font-family="JetBrains Mono, 'DejaVu Sans Mono', monospace" letter-spacing="0.2">negotiation guide</text>
<path d="M580 402 C520 352 480 492 472 502" stroke="#2DD4BF" stroke-width="1.6" fill="none" opacity="0.9" marker-end="url(#aCy)"/>
<text x="516" y="314" font-size="9.2" fill="#2DD4BF" font-family="JetBrains Mono, 'DejaVu Sans Mono', monospace" font-weight="700" letter-spacing="0.2" text-anchor="middle">THE MOMENT YOU ACT →</text>
<rect x="1010" y="378" width="150" height="236" rx="8" fill="#2A323C" stroke="#3B4552" stroke-width="1.3" opacity="0.6"/>
<rect x="1010" y="378" width="150" height="236" rx="8" fill="none" stroke="#3B4552" stroke-width="1.4"/>
<text x="1024" y="408" font-size="16" fill="#7B8794" font-weight="700" letter-spacing="0.3">ARCHIVES</text>
<text x="1024" y="424" font-size="8.6" fill="#5A6470" font-family="JetBrains Mono, 'DejaVu Sans Mono', monospace" letter-spacing="0.3">done · dormant</text>
<text x="1024" y="436" font-size="8.2" fill="#5A6470" font-family="JetBrains Mono, 'DejaVu Sans Mono', monospace" letter-spacing="0.2">one-way · near-invisible</text>
<rect x="1024" y="452" width="122" height="26" rx="3" fill="none" stroke="#3B4552" stroke-width="1" opacity="0.5"/>
<text x="1030" y="469" font-size="7.8" fill="#5E6B78" font-family="JetBrains Mono, 'DejaVu Sans Mono', monospace" letter-spacing="0.2" opacity="0.7">2019 rebrand</text>
<rect x="1024" y="486" width="122" height="26" rx="3" fill="none" stroke="#3B4552" stroke-width="1" opacity="0.5"/>
<text x="1030" y="503" font-size="7.8" fill="#5E6B78" font-family="JetBrains Mono, 'DejaVu Sans Mono', monospace" letter-spacing="0.2" opacity="0.7">old contract</text>
<rect x="1024" y="520" width="122" height="26" rx="3" fill="none" stroke="#3B4552" stroke-width="1" opacity="0.5"/>
<text x="1030" y="537" font-size="7.8" fill="#5E6B78" font-family="JetBrains Mono, 'DejaVu Sans Mono', monospace" letter-spacing="0.2" opacity="0.7">last launch</text>
<rect x="1024" y="554" width="122" height="26" rx="3" fill="none" stroke="#3B4552" stroke-width="1" opacity="0.5"/>
<text x="1030" y="571" font-size="7.8" fill="#5E6B78" font-family="JetBrains Mono, 'DejaVu Sans Mono', monospace" letter-spacing="0.2" opacity="0.7">v1 archive</text>
<line x1="1004" y1="384" x2="1004" y2="608" stroke="#3B4552" stroke-width="2" opacity="0.8"/>
<path d="M1002 488 l-12 -7 v14 z" fill="#3B4552"/>
<text x="1085.0" y="630" font-size="8.4" fill="#5A6470" font-family="JetBrains Mono, 'DejaVu Sans Mono', monospace" letter-spacing="0.4" text-anchor="middle">SWEEP GATE · one-way</text>
<path d="M474 352 C640 250 920 250 1000 418" stroke="#2DD4BF" stroke-width="2.4" fill="none" opacity="0.85" marker-end="url(#aCy)"/>
<text x="740" y="255" font-size="11" fill="#2DD4BF" font-family="JetBrains Mono, 'DejaVu Sans Mono', monospace" font-weight="700" letter-spacing="0.6" text-anchor="middle">THE DAY IT&#x27;S DONE — the satisfying sweep</text>
<path d="M1002 548 C940 560 978 600 958 590" stroke="#3B4552" stroke-width="1.2" fill="none" stroke-dasharray="5 4" opacity="0.55" marker-end="url(#aDim)"/>
<text x="960" y="612" font-size="8.6" fill="#5A6470" font-family="JetBrains Mono, 'DejaVu Sans Mono', monospace" letter-spacing="0.3" text-anchor="middle">resurrect if relevant again (rare)</text>
<text x="284.0" y="310" font-size="8.4" fill="#2DD4BF" font-family="JetBrains Mono, 'DejaVu Sans Mono', monospace" letter-spacing="1" text-anchor="middle" opacity="0.0">hottest</text>
<rect x="1192" y="360" width="262" height="150" rx="8" fill="none" stroke="#2A3340" stroke-width="1"/>
<text x="1206" y="386" font-size="10.5" fill="#2DD4BF" font-family="JetBrains Mono, 'DejaVu Sans Mono', monospace" font-weight="700" letter-spacing="0.5">AI = MULTIPLIER, NOT STORAGE</text>
<circle cx="1210" cy="410" r="3.4" fill="#2DD4BF"/>
<text x="1222" y="414" font-size="10.5" fill="#E6E8EE" font-weight="700">GOOD CAPTURE</text>
<text x="1222" y="427" font-size="8.6" fill="#8A93A3" font-family="JetBrains Mono, 'DejaVu Sans Mono', monospace" letter-spacing="0.2">= fundamental</text>
<circle cx="1210" cy="440" r="3.4" fill="#2DD4BF"/>
<text x="1222" y="444" font-size="10.5" fill="#E6E8EE" font-weight="700">×AI RETRIEVAL</text>
<text x="1222" y="457" font-size="8.6" fill="#8A93A3" font-family="JetBrains Mono, 'DejaVu Sans Mono', monospace" letter-spacing="0.2">= multiplier</text>
<circle cx="1210" cy="470" r="3.4" fill="#E8A23D"/>
<text x="1222" y="474" font-size="10.5" fill="#E6E8EE" font-weight="700">PERFECT FOLDERS</text>
<text x="1222" y="487" font-size="8.6" fill="#8A93A3" font-family="JetBrains Mono, 'DejaVu Sans Mono', monospace" letter-spacing="0.2">= no longer the bottleneck</text>
<text x="1206" y="498" font-size="8.4" fill="#5A6470" font-family="JetBrains Mono, 'DejaVu Sans Mono', monospace" letter-spacing="0.2">the article rejects &#x27;second brain</text>
<text x="1206" y="509" font-size="8.4" fill="#5A6470" font-family="JetBrains Mono, 'DejaVu Sans Mono', monospace" letter-spacing="0.2">as storage&#x27; → tools that ACT, Pt 4.2</text>
<rect x="1190" y="524" width="266" height="46" fill="url(#gCyS)"/>
<text x="1206" y="548" font-size="12.5" fill="#E6E8EE" font-weight="700">FILING MATTERS LESS.</text>
<text x="1206" y="566" font-size="12.5" font-weight="700" fill="#2DD4BF">CAPTURING MATTERS MORE.</text>
<text x="1206" y="584" font-size="9" fill="#5FCBBC" font-family="JetBrains Mono, 'DejaVu Sans Mono', monospace" letter-spacing="0.6">→ Part 5.0</text>
<text x="1206" y="612" font-size="10" fill="#8A93A3" font-family="JetBrains Mono, 'DejaVu Sans Mono', monospace" font-weight="700" letter-spacing="1.0">COLOUR = TEMPERATURE</text>
<rect x="1206" y="624" width="16" height="12" rx="2" fill="#2DD4BF" opacity="0.9"/>
<text x="1230" y="634" font-size="10" fill="#C6CDD7">LIVE / HOT — act soon</text>
<rect x="1206" y="646" width="16" height="12" rx="2" fill="#6E8B9E" opacity="0.9"/>
<text x="1230" y="656" font-size="10" fill="#C6CDD7">COOL — reference, default</text>
<rect x="1206" y="668" width="16" height="12" rx="2" fill="#3B4552" opacity="0.9"/>
<text x="1230" y="678" font-size="10" fill="#C6CDD7">COLD — done / dormant</text>
<rect x="1206" y="690" width="16" height="12" rx="2" fill="#E8A23D" opacity="0.9"/>
<text x="1230" y="700" font-size="10" fill="#C6CDD7">caution / rejected scheme</text>
<rect x="1206" y="712" width="16" height="12" rx="2" fill="#FF5C5C" opacity="0.9"/>
<text x="1230" y="722" font-size="10" fill="#C6CDD7">the one un-swept defect</text>
<line x1="1206" y1="756" x2="1440" y2="756" stroke="#222A33" stroke-width="1"/>
<text x="1206" y="778" font-size="15" fill="#E6E8EE" font-weight="600" font-style="italic">“A base you can&#x27;t</text>
<text x="1206" y="800" font-size="15" fill="#E6E8EE" font-weight="600" font-style="italic">retrieve from is</text>
<text x="1206" y="822" font-size="15" fill="#2DD4BF" font-weight="600" font-style="italic">just a hoard.”</text>
<text x="1206" y="844" font-size="9.5" fill="#5FCBBC" font-family="JetBrains Mono, 'DejaVu Sans Mono', monospace" font-weight="700" letter-spacing="0.6">RETRIEVAL IS THE ONLY JOB.</text>
<rect x="70" y="800" width="420" height="200" rx="8" fill="none" stroke="#E8A23D" stroke-width="1" opacity="0.45" stroke-dasharray="6 4"/>
<text x="84" y="824" font-size="10.5" fill="#E8A23D" font-family="JetBrains Mono, 'DejaVu Sans Mono', monospace" font-weight="700" letter-spacing="0.5" opacity="0.85">REJECTED — TOPIC-SORTED RACK</text>
<rect x="88" y="838" width="118" height="138" rx="4" fill="none" stroke="#3B4552" stroke-width="1" opacity="0.55"/>
<text x="147" y="854" font-size="9" fill="#9aa3ad" font-family="JetBrains Mono, 'DejaVu Sans Mono', monospace" letter-spacing="0.4" text-anchor="middle" opacity="0.8">MARKETING</text>
<rect x="98" y="874" width="98" height="30" rx="4" fill="none" stroke="#3B4552" stroke-width="1" opacity="0.7"/>
<text x="104" y="888" font-size="8.2" fill="#9aa3ad" font-family="JetBrains Mono, 'DejaVu Sans Mono', monospace" letter-spacing="0.2">Q3 PAGE</text>
<text x="104" y="899" font-size="7.4" fill="#9aa3ad" font-family="JetBrains Mono, 'DejaVu Sans Mono', monospace" letter-spacing="0.2">DUE FRI (hot!)</text>
<rect x="98" y="910" width="98" height="30" rx="4" fill="none" stroke="#3B4552" stroke-width="1" opacity="0.7"/>
<text x="104" y="924" font-size="8.2" fill="#9aa3ad" font-family="JetBrains Mono, 'DejaVu Sans Mono', monospace" letter-spacing="0.2">saved article</text>
<text x="104" y="935" font-size="7.4" fill="#9aa3ad" font-family="JetBrains Mono, 'DejaVu Sans Mono', monospace" letter-spacing="0.2">2 yrs cold</text>
<line x1="98" y1="907" x2="196" y2="907" stroke="#3B4552" stroke-width="1" opacity="0.6"/>
<rect x="220" y="838" width="118" height="138" rx="4" fill="none" stroke="#3B4552" stroke-width="1" opacity="0.55"/>
<text x="279" y="854" font-size="9" fill="#9aa3ad" font-family="JetBrains Mono, 'DejaVu Sans Mono', monospace" letter-spacing="0.4" text-anchor="middle" opacity="0.8">HEALTH</text>
<rect x="230" y="874" width="98" height="26" rx="3" fill="none" stroke="#3B4552" stroke-width="1" opacity="0.4"/>
<rect x="230" y="908" width="98" height="26" rx="3" fill="none" stroke="#3B4552" stroke-width="1" opacity="0.4"/>
<rect x="230" y="942" width="98" height="26" rx="3" fill="none" stroke="#3B4552" stroke-width="1" opacity="0.4"/>
<rect x="352" y="838" width="118" height="138" rx="4" fill="none" stroke="#3B4552" stroke-width="1" opacity="0.55"/>
<text x="411" y="854" font-size="9" fill="#9aa3ad" font-family="JetBrains Mono, 'DejaVu Sans Mono', monospace" letter-spacing="0.4" text-anchor="middle" opacity="0.8">FINANCE</text>
<rect x="362" y="874" width="98" height="26" rx="3" fill="none" stroke="#3B4552" stroke-width="1" opacity="0.4"/>
<rect x="362" y="908" width="98" height="26" rx="3" fill="none" stroke="#3B4552" stroke-width="1" opacity="0.4"/>
<rect x="362" y="942" width="98" height="26" rx="3" fill="none" stroke="#3B4552" stroke-width="1" opacity="0.4"/>
<text x="84" y="990" font-size="10.5" fill="#E8A23D" font-family="JetBrains Mono, 'DejaVu Sans Mono', monospace" font-weight="700" letter-spacing="0.4" opacity="0.9">TOPIC CAN&#x27;T TELL YOU WHAT&#x27;S HOT NOW.</text>
<line x1="78" y1="994" x2="482" y2="810" stroke="#E8A23D" stroke-width="1.4" opacity="0.5"/>
<text x="520" y="824" font-size="11" fill="#E6E8EE" font-family="JetBrains Mono, 'DejaVu Sans Mono', monospace" font-weight="700" letter-spacing="0.8">ONE SCHEME, EVERY TOOL</text>
<text x="520" y="840" font-size="9" fill="#8A93A3" font-family="JetBrains Mono, 'DejaVu Sans Mono', monospace" letter-spacing="0.2">the same four-zone bus, stamped on every store → the decision becomes automatic</text>
<rect x="520" y="860" width="34" height="26" rx="3" fill="#2DD4BF" opacity="0.85"/>
<rect x="558" y="860" width="34" height="26" rx="3" fill="#37A99B" opacity="0.85"/>
<rect x="596" y="860" width="34" height="26" rx="3" fill="#6E8B9E" opacity="0.55"/>
<rect x="634" y="860" width="34" height="26" rx="3" fill="#3B4552" opacity="0.55"/>
<text x="520" y="904" font-size="9.5" fill="#C6CDD7" font-family="JetBrains Mono, 'DejaVu Sans Mono', monospace" letter-spacing="0.6">NOTES</text>
<text x="522" y="918" font-size="8" fill="#5A6470" font-family="JetBrains Mono, 'DejaVu Sans Mono', monospace" letter-spacing="2.4">P  A  R  A</text>
<rect x="690" y="860" width="34" height="26" rx="3" fill="#2DD4BF" opacity="0.85"/>
<rect x="728" y="860" width="34" height="26" rx="3" fill="#37A99B" opacity="0.85"/>
<rect x="766" y="860" width="34" height="26" rx="3" fill="#6E8B9E" opacity="0.55"/>
<rect x="804" y="860" width="34" height="26" rx="3" fill="#3B4552" opacity="0.55"/>
<text x="690" y="904" font-size="9.5" fill="#C6CDD7" font-family="JetBrains Mono, 'DejaVu Sans Mono', monospace" letter-spacing="0.6">FILES</text>
<text x="692" y="918" font-size="8" fill="#5A6470" font-family="JetBrains Mono, 'DejaVu Sans Mono', monospace" letter-spacing="2.4">P  A  R  A</text>
<rect x="860" y="860" width="34" height="26" rx="3" fill="#2DD4BF" opacity="0.85"/>
<rect x="898" y="860" width="34" height="26" rx="3" fill="#37A99B" opacity="0.85"/>
<rect x="936" y="860" width="34" height="26" rx="3" fill="#6E8B9E" opacity="0.55"/>
<rect x="974" y="860" width="34" height="26" rx="3" fill="#3B4552" opacity="0.55"/>
<text x="860" y="904" font-size="9.5" fill="#C6CDD7" font-family="JetBrains Mono, 'DejaVu Sans Mono', monospace" letter-spacing="0.6">CLOUD</text>
<text x="862" y="918" font-size="8" fill="#5A6470" font-family="JetBrains Mono, 'DejaVu Sans Mono', monospace" letter-spacing="2.4">P  A  R  A</text>
<rect x="1030" y="860" width="34" height="26" rx="3" fill="#2DD4BF" opacity="0.85"/>
<rect x="1068" y="860" width="34" height="26" rx="3" fill="#37A99B" opacity="0.85"/>
<rect x="1106" y="860" width="34" height="26" rx="3" fill="#6E8B9E" opacity="0.55"/>
<rect x="1144" y="860" width="34" height="26" rx="3" fill="#3B4552" opacity="0.55"/>
<text x="1030" y="904" font-size="9.5" fill="#C6CDD7" font-family="JetBrains Mono, 'DejaVu Sans Mono', monospace" letter-spacing="0.6">BOOKMARKS</text>
<text x="1032" y="918" font-size="8" fill="#5A6470" font-family="JetBrains Mono, 'DejaVu Sans Mono', monospace" letter-spacing="2.4">P  A  R  A</text>
<line x1="70" y1="1052" x2="1454" y2="1052" stroke="#222A33" stroke-width="1"/>
<text x="70" y="1092" font-size="26" fill="#E6E8EE" font-weight="700" letter-spacing="0.4">RETRIEVAL IS THE ONLY JOB.</text>
<text x="70" y="1116" font-size="10.5" fill="#5FCBBC" font-family="JetBrains Mono, 'DejaVu Sans Mono', monospace" letter-spacing="0.3">One axis: how soon you&#x27;ll act. Hot glows up front · dead weight cools into the dark on its own.</text>
<circle cx="820" cy="1086" r="4" fill="#2DD4BF"/>
<text x="832" y="1082" font-size="10" fill="#C6CDD7" font-family="JetBrains Mono, 'DejaVu Sans Mono', monospace" font-weight="700" letter-spacing="0.4">R→P</text>
<text x="832" y="1096" font-size="8" fill="#5A6470" font-family="JetBrains Mono, 'DejaVu Sans Mono', monospace" letter-spacing="0.2">the moment you act</text>
<circle cx="980" cy="1086" r="4" fill="#2DD4BF"/>
<text x="992" y="1082" font-size="10" fill="#C6CDD7" font-family="JetBrains Mono, 'DejaVu Sans Mono', monospace" font-weight="700" letter-spacing="0.4">P→A</text>
<text x="992" y="1096" font-size="8" fill="#5A6470" font-family="JetBrains Mono, 'DejaVu Sans Mono', monospace" letter-spacing="0.2">the day it&#x27;s done</text>
<circle cx="1140" cy="1086" r="4" fill="#37A99B"/>
<text x="1152" y="1082" font-size="10" fill="#C6CDD7" font-family="JetBrains Mono, 'DejaVu Sans Mono', monospace" font-weight="700" letter-spacing="0.4">A⇒P</text>
<text x="1152" y="1096" font-size="8" fill="#5A6470" font-family="JetBrains Mono, 'DejaVu Sans Mono', monospace" letter-spacing="0.2">areas spin off, always</text>
<circle cx="1300" cy="1086" r="4" fill="#3B4552"/>
<text x="1312" y="1082" font-size="10" fill="#C6CDD7" font-family="JetBrains Mono, 'DejaVu Sans Mono', monospace" font-weight="700" letter-spacing="0.4">A→R</text>
<text x="1312" y="1096" font-size="8" fill="#5A6470" font-family="JetBrains Mono, 'DejaVu Sans Mono', monospace" letter-spacing="0.2">resurrect (rare)</text>
<text x="1454" y="1130" font-size="9.5" fill="#8A93A3" font-family="JetBrains Mono, 'DejaVu Sans Mono', monospace" letter-spacing="0.6" text-anchor="end">FILE BY HEAT · DEFAULT TO RESOURCES · ARCHIVE AGGRESSIVELY</text>
</svg>